<svg version="1.1" xmlns="http://www.w3.org/2000/svg" viewBox="0 0 1121.4104567898394 1315.3918110577772" width="3364.231370369518" height="3946.175433173332" filter="invert(93%) hue-rotate(180deg)">
  <!-- svg-source:excalidraw -->

  <defs>
    <style class="style-fonts">
      @font-face {
        font-family: "Virgil";
        src: url("https://excalidraw.com/Virgil.woff2");
      }
      @font-face {
        font-family: "Cascadia";
        src: url("https://excalidraw.com/Cascadia.woff2");
      }
      @font-face {
        font-family: "Assistant";
        src: url("https://app.excalidraw.com//dist/excalidraw-assets/Assistant-Regular.woff2");
      }
    </style>
    <clipPath id="B_QcRftL3-QeEXV-iN9Js">
            <rect transform="translate(0 0) rotate(0 560.7052283949197 657.6959055288886)" width="1121.4104567898387" height="1315.3918110577772">
          </rect>
        </clipPath>
  </defs>
  <rect x="0" y="0" width="1121.4104567898394" height="1315.3918110577772" fill="#ffffff"></rect><g clip-path="url(#B_QcRftL3-QeEXV-iN9Js)"><g stroke-linecap="round" transform="translate(268.85706072223 762.1384586060019) rotate(0 374.9345792512977 153.4722040778223)"><path d="M32 0 C273.52 2.41, 514.83 2.45, 717.87 0 M32 0 C223.6 1.15, 414.8 1.11, 717.87 0 M717.87 0 C738.74 -0.95, 749.37 9.41, 749.87 32 M717.87 0 C737.76 0.14, 749.45 11.9, 749.87 32 M749.87 32 C748.14 93.91, 749.36 157.94, 749.87 274.94 M749.87 32 C750.28 93.79, 749.12 155.36, 749.87 274.94 M749.87 274.94 C748.53 294.89, 739.08 307.32, 717.87 306.94 M749.87 274.94 C749.11 297.31, 737.35 306.67, 717.87 306.94 M717.87 306.94 C574.63 308.29, 432.19 309.35, 32 306.94 M717.87 306.94 C501.76 305.22, 285.3 305.32, 32 306.94 M32 306.94 C10.49 308.23, 1.9 297.35, 0 274.94 M32 306.94 C11.93 308.1, 0.91 296.6, 0 274.94 M0 274.94 C0.88 210.92, 0.32 146.9, 0 32 M0 274.94 C2.27 193.34, 1.88 112.75, 0 32 M0 32 C-1.21 10.14, 9.37 1.25, 32 0 M0 32 C-2.04 10.88, 10.43 -1.09, 32 0" stroke="#1e1e1e" stroke-width="2" fill="none"></path></g></g><g clip-path="url(#B_QcRftL3-QeEXV-iN9Js)"><g transform="translate(273.85706072223 767.1384586060019) rotate(0 178.43399047851562 14.514989820100254)"><text x="0" y="20.344209731852537" font-family="Virgil, Segoe UI Emoji" font-size="23.223983712160432px" fill="#1e1e1e" text-anchor="start" style="white-space: pre;" direction="ltr" dominant-baseline="alphabetic"> Operator (executor/attester)</text></g></g><g clip-path="url(#B_QcRftL3-QeEXV-iN9Js)"><g mask="url(#mask-NgcGDJ_9eMVTX2_ieLJt0)" stroke-linecap="round"><g transform="translate(760 540) rotate(0 0 130)"><path d="M0.49 0.61 C0.57 27.26, 0.4 117.42, 0.32 160.64 C0.25 203.87, 0.26 243.38, 0.05 259.96 M-0.71 -0.11 C-0.75 26.12, -0.46 115.3, -0.45 158.86 C-0.45 202.42, -0.58 244.19, -0.69 261.25" stroke="#2f9e44" stroke-width="2" fill="none"></path></g></g><mask id="mask-NgcGDJ_9eMVTX2_ieLJt0"><rect x="0" y="0" fill="#fff" width="860" height="900"></rect><rect x="701.5" y="655.2511798126543" fill="#000" width="117" height="89.4976403746916" opacity="1"></rect></mask></g><g clip-path="url(#B_QcRftL3-QeEXV-iN9Js)"><g transform="translate(701.5 655.2511798126543) rotate(0 58.396208046853644 15.317695382487614)"><text x="58.5" y="15.679986593645967" font-family="Virgil, Segoe UI Emoji" font-size="17.89952807493832px" fill="#2f9e44" text-anchor="middle" style="white-space: pre;" direction="ltr" dominant-baseline="alphabetic">Provides </text><text x="58.5" y="38.05439668731887" font-family="Virgil, Segoe UI Emoji" font-size="17.89952807493832px" fill="#2f9e44" text-anchor="middle" style="white-space: pre;" direction="ltr" dominant-baseline="alphabetic">automations </text><text x="58.5" y="60.42880678099176" font-family="Virgil, Segoe UI Emoji" font-size="17.89952807493832px" fill="#2f9e44" text-anchor="middle" style="white-space: pre;" direction="ltr" dominant-baseline="alphabetic">to check </text><text x="58.5" y="82.80321687466466" font-family="Virgil, Segoe UI Emoji" font-size="17.89952807493832px" fill="#2f9e44" text-anchor="middle" style="white-space: pre;" direction="ltr" dominant-baseline="alphabetic">and execute</text></g></g><g clip-path="url(#B_QcRftL3-QeEXV-iN9Js)"><g stroke-linecap="round" transform="translate(259.11231361189857 145.5949246717189) rotate(0 187.16406282546995 40.01306135271102)"><path d="M20.01 0 C129.26 -1.13, 238.72 0.03, 354.32 0 M20.01 0 C149.88 -2.2, 280.57 -1.78, 354.32 0 M354.32 0 C367.84 -1.76, 376.22 4.8, 374.33 20.01 M354.32 0 C367.41 0.4, 374.6 6.49, 374.33 20.01 M374.33 20.01 C373.45 32.78, 375.86 41.08, 374.33 60.02 M374.33 20.01 C375.18 30.22, 374.23 42.1, 374.33 60.02 M374.33 60.02 C375.08 73.72, 369.03 78.67, 354.32 80.03 M374.33 60.02 C376.14 72.12, 368.97 78.19, 354.32 80.03 M354.32 80.03 C238.28 77.56, 119.84 79.67, 20.01 80.03 M354.32 80.03 C223.39 81.15, 91.11 80.72, 20.01 80.03 M20.01 80.03 C5.83 81.22, -0.98 72.78, 0 60.02 M20.01 80.03 C5.04 79.82, 0.1 75.42, 0 60.02 M0 60.02 C0.87 48.84, 1.63 34.38, 0 20.01 M0 60.02 C0.61 47.28, -0.17 34.5, 0 20.01 M0 20.01 C1.8 5.9, 8.23 -0.94, 20.01 0 M0 20.01 C-0.53 5.58, 6.1 -1.45, 20.01 0" stroke="#1e1e1e" stroke-width="2" fill="none"></path></g></g><g clip-path="url(#B_QcRftL3-QeEXV-iN9Js)"><g transform="translate(340.70646066588415 173.10798602443015) rotate(0 105.56991577148438 12.5)"><text x="105.56991577148438" y="17.52" font-family="Virgil, Segoe UI Emoji" font-size="20px" fill="#1e1e1e" text-anchor="middle" style="white-space: pre;" direction="ltr" dominant-baseline="alphabetic">EigenLayer Contracts</text></g></g><g clip-path="url(#B_QcRftL3-QeEXV-iN9Js)"><g stroke-linecap="round" transform="translate(399.4941735203156 14.567214010623047) rotate(0 39.7622730084222 17.5)"><path d="M8.75 0 C24.41 0.66, 38.41 -1.92, 70.77 0 M8.75 0 C27.54 -1.28, 47.09 -1.33, 70.77 0 M70.77 0 C76.39 0.35, 79.76 2.76, 79.52 8.75 M70.77 0 C76.16 0.67, 81.52 1.77, 79.52 8.75 M79.52 8.75 C79.2 16.01, 79.32 23.21, 79.52 26.25 M79.52 8.75 C79.81 12.82, 80.08 15.97, 79.52 26.25 M79.52 26.25 C81.1 31, 77.75 33.4, 70.77 35 M79.52 26.25 C80.67 31.08, 75.21 36.63, 70.77 35 M70.77 35 C59.05 36.76, 44.53 37.23, 8.75 35 M70.77 35 C51.08 35.26, 31.75 34.38, 8.75 35 M8.75 35 C1.5 34.82, 0.08 33.88, 0 26.25 M8.75 35 C3.04 34.3, -1.01 32.95, 0 26.25 M0 26.25 C0.1 21.75, -0.12 15.67, 0 8.75 M0 26.25 C0.75 21.04, 0.65 16.08, 0 8.75 M0 8.75 C-0.46 1.97, 2.42 -1.26, 8.75 0 M0 8.75 C-1.44 3.05, 2.5 1.24, 8.75 0" stroke="#1e1e1e" stroke-width="2" fill="none"></path></g></g><g clip-path="url(#B_QcRftL3-QeEXV-iN9Js)"><g transform="translate(406.2164761307886 19.567214010623047) rotate(0 33.03997039794922 12.5)"><text x="33.03997039794922" y="17.52" font-family="Virgil, Segoe UI Emoji" font-size="20px" fill="#1e1e1e" text-anchor="middle" style="white-space: pre;" direction="ltr" dominant-baseline="alphabetic">Staker</text></g></g><g clip-path="url(#B_QcRftL3-QeEXV-iN9Js)"><g mask="url(#mask-UYCMEwomErkO9Jy0iH7k4)" stroke-linecap="round"><g transform="translate(447.7181467356095 52.45602399427435) rotate(0 0.09330166719155386 41.99071956233843)"><path d="M-1.12 0.02 C-1.29 13.95, -0.86 70.93, -0.62 84.75 M0.49 -1.02 C0.66 13.08, 1.82 68.91, 1.67 83.03" stroke="#1e1e1e" stroke-width="2" fill="none"></path></g><g transform="translate(447.7181467356095 52.45602399427435) rotate(0 0.09330166719155386 41.99071956233843)"><path d="M-7.05 59.6 C-3.87 66.2, 0.31 75.59, 1.67 83.03 M-7.05 59.6 C-5.09 64.82, -3.02 69.53, 1.67 83.03" stroke="#1e1e1e" stroke-width="2" fill="none"></path></g><g transform="translate(447.7181467356095 52.45602399427435) rotate(0 0.09330166719155386 41.99071956233843)"><path d="M10.05 59.48 C7.5 65.96, 5.93 75.39, 1.67 83.03 M10.05 59.48 C8.39 64.56, 6.84 69.3, 1.67 83.03" stroke="#1e1e1e" stroke-width="2" fill="none"></path></g></g><mask id="mask-UYCMEwomErkO9Jy0iH7k4"><rect x="0" y="0" fill="#fff" width="547.9047500699917" height="236.4374631189512"></rect><rect x="360.05950290719557" y="74.44674355661277" fill="#000" width="175.50389099121094" height="40" opacity="1"></rect></mask></g><g clip-path="url(#B_QcRftL3-QeEXV-iN9Js)"><g transform="translate(360.05950290719557 74.44674355661277) rotate(0 87.91859103431034 19.87441744252112)"><text x="87.75194549560547" y="14.016" font-family="Virgil, Segoe UI Emoji" font-size="16px" fill="#1e1e1e" text-anchor="middle" style="white-space: pre;" direction="ltr" dominant-baseline="alphabetic">deposits stake on the</text><text x="87.75194549560547" y="34.016" font-family="Virgil, Segoe UI Emoji" font-size="16px" fill="#1e1e1e" text-anchor="middle" style="white-space: pre;" direction="ltr" dominant-baseline="alphabetic">ditto operator</text></g></g><g clip-path="url(#B_QcRftL3-QeEXV-iN9Js)"><g stroke-linecap="round" transform="translate(376.3121402795732 410.04781888445973) rotate(0 276.0311679314409 74.52505512620155)"><path d="M32 0 C144.82 0.61, 258.33 -0.28, 520.06 0 M32 0 C186.92 0.28, 342.37 -0.05, 520.06 0 M520.06 0 C542.95 1.42, 550.7 10.16, 552.06 32 M520.06 0 C542.25 -0.43, 553.68 8.9, 552.06 32 M552.06 32 C552.54 56.75, 550.82 80.34, 552.06 117.05 M552.06 32 C553.05 52.49, 551.94 74.55, 552.06 117.05 M552.06 117.05 C550.44 137.66, 542.91 150.92, 520.06 149.05 M552.06 117.05 C553.54 139.45, 543.42 149.3, 520.06 149.05 M520.06 149.05 C386.39 147.78, 251.47 147.59, 32 149.05 M520.06 149.05 C378.11 150.76, 235.93 151.05, 32 149.05 M32 149.05 C11.71 150.56, -1.2 138.64, 0 117.05 M32 149.05 C12.85 149.06, 2.29 137.9, 0 117.05 M0 117.05 C-0.36 91.32, -0.54 62, 0 32 M0 117.05 C-0.42 95.64, 0.03 74.64, 0 32 M0 32 C-0.82 9.49, 11.24 -0.66, 32 0 M0 32 C-1.37 11.61, 10.85 -1.06, 32 0" stroke="#1e1e1e" stroke-width="2" fill="none"></path></g></g><g clip-path="url(#B_QcRftL3-QeEXV-iN9Js)"><g transform="translate(541.2113502032007 415.04781888445973) rotate(0 111.1319580078125 15.869836741680956)"><text x="111.1319580078125" y="22.243163177140016" font-family="Virgil, Segoe UI Emoji" font-size="25.391738786689515px" fill="#1e1e1e" text-anchor="middle" style="white-space: pre;" direction="ltr" dominant-baseline="alphabetic">Ditto Entry Point</text></g></g><g clip-path="url(#B_QcRftL3-QeEXV-iN9Js)"><g stroke-linecap="round" transform="translate(656.9416513303004 462.9535342011802) rotate(0 125.79665486541671 38.087608180034294)"><path d="M19.04 0 C103.59 0.42, 187.38 -0.14, 232.55 0 M19.04 0 C90.01 1.56, 159.01 0.71, 232.55 0 M232.55 0 C245.99 -0.37, 253 4.81, 251.59 19.04 M232.55 0 C244.67 0.3, 252.46 6.77, 251.59 19.04 M251.59 19.04 C250.26 34.22, 249.74 48.13, 251.59 57.13 M251.59 19.04 C250.55 28.45, 252.12 39.51, 251.59 57.13 M251.59 57.13 C252.88 70.76, 247 76.39, 232.55 76.18 M251.59 57.13 C251.02 68.6, 244.28 77.54, 232.55 76.18 M232.55 76.18 C178.77 74.92, 126.88 74.94, 19.04 76.18 M232.55 76.18 C175.41 77.54, 116.83 76.99, 19.04 76.18 M19.04 76.18 C8.25 76.18, 1.99 69.4, 0 57.13 M19.04 76.18 C6.83 75.09, 2.07 68.95, 0 57.13 M0 57.13 C-0.77 42.23, -1.08 27.08, 0 19.04 M0 57.13 C-0.34 44.89, 0.36 33.49, 0 19.04 M0 19.04 C-1.19 7.16, 6.51 -0.92, 19.04 0 M0 19.04 C-0.21 5.25, 7.99 0.15, 19.04 0" stroke="#1e1e1e" stroke-width="2" fill="none"></path></g></g><g clip-path="url(#B_QcRftL3-QeEXV-iN9Js)"><g transform="translate(721.3453313422015 467.9535342011802) rotate(0 61.392974853515625 31.739673483361912)"><text x="61.392974853515625" y="22.243163177140016" font-family="Virgil, Segoe UI Emoji" font-size="25.391738786689515px" fill="#1e1e1e" text-anchor="middle" style="white-space: pre;" direction="ltr" dominant-baseline="alphabetic">Workflows</text><text x="61.392974853515625" y="53.98283666050191" font-family="Virgil, Segoe UI Emoji" font-size="25.391738786689515px" fill="#1e1e1e" text-anchor="middle" style="white-space: pre;" direction="ltr" dominant-baseline="alphabetic">indexation</text></g></g><g clip-path="url(#B_QcRftL3-QeEXV-iN9Js)"><g mask="url(#mask-aqU0Vh7L-uyseYtrpMR6K)" stroke-linecap="round"><g transform="translate(283.4268686703672 751.4096155935367) rotate(0 -1.3731378485117602 -259.6793356165774)"><path d="M-0.24 0.35 C-0.54 -86.29, -1.44 -433.48, -1.7 -519.96 M-1.82 -0.51 C-2.21 -87, -2.06 -432.09, -2.1 -518.73" stroke="#e03131" stroke-width="2" fill="none"></path></g><g transform="translate(283.4268686703672 751.4096155935367) rotate(0 -1.3731378485117602 -259.6793356165774)"><path d="M6.45 -495.24 C4.38 -500.85, 0.13 -508.36, -2.1 -518.73 M6.45 -495.24 C3.81 -504.17, 0.97 -513.46, -2.1 -518.73" stroke="#e03131" stroke-width="2" fill="none"></path></g><g transform="translate(283.4268686703672 751.4096155935367) rotate(0 -1.3731378485117602 -259.6793356165774)"><path d="M-10.65 -495.24 C-7.38 -500.82, -6.3 -508.33, -2.1 -518.73 M-10.65 -495.24 C-6.95 -504.12, -3.45 -513.42, -2.1 -518.73" stroke="#e03131" stroke-width="2" fill="none"></path></g></g><mask id="mask-aqU0Vh7L-uyseYtrpMR6K"><rect x="0" y="0" fill="#fff" width="386.1731443673907" height="1370.7682868266916"></rect><rect x="215.15372929597652" y="471.7302799769593" fill="#000" width="133.8000030517578" height="40" opacity="1"></rect></mask></g><g clip-path="url(#B_QcRftL3-QeEXV-iN9Js)"><g transform="translate(215.15372929597652 471.7302799769593) rotate(0 67.10307764143727 19.875672523304843)"><text x="66.9000015258789" y="14.016" font-family="Virgil, Segoe UI Emoji" font-size="16px" fill="#e03131" text-anchor="middle" style="white-space: pre;" direction="ltr" dominant-baseline="alphabetic">Register as new </text><text x="66.9000015258789" y="34.016" font-family="Virgil, Segoe UI Emoji" font-size="16px" fill="#e03131" text-anchor="middle" style="white-space: pre;" direction="ltr" dominant-baseline="alphabetic">operator</text></g></g><g clip-path="url(#B_QcRftL3-QeEXV-iN9Js)"><g stroke-linecap="round" transform="translate(739.131663008844 213.02254798457966) rotate(0 75.87829139911901 42.5)"><path d="M21.25 0 C64.94 -2.21, 105.27 -0.11, 130.51 0 M21.25 0 C51.74 0.97, 83.12 1.02, 130.51 0 M130.51 0 C146.05 -1.35, 153.33 6, 151.76 21.25 M130.51 0 C145.98 -1.84, 152.91 6.08, 151.76 21.25 M151.76 21.25 C151.33 32.93, 153.93 42.86, 151.76 63.75 M151.76 21.25 C151.88 35.44, 151.71 51.29, 151.76 63.75 M151.76 63.75 C150.78 77.34, 143.25 84.82, 130.51 85 M151.76 63.75 C151.85 79.98, 144.8 84.3, 130.51 85 M130.51 85 C104.04 84.36, 74.82 87.47, 21.25 85 M130.51 85 C97.89 84.3, 65.75 84.39, 21.25 85 M21.25 85 C8.65 84.06, -0.46 76.97, 0 63.75 M21.25 85 C6.51 83.55, -1.44 78.05, 0 63.75 M0 63.75 C-1.41 52.35, -0.89 38.6, 0 21.25 M0 63.75 C-0.12 48.79, 0.68 34.84, 0 21.25 M0 21.25 C-1.37 6.81, 5.74 -1.39, 21.25 0 M0 21.25 C-0.15 7.51, 6.32 1.03, 21.25 0" stroke="#1e1e1e" stroke-width="2" fill="none"></path></g></g><g clip-path="url(#B_QcRftL3-QeEXV-iN9Js)"><g transform="translate(745.070013001714 218.02254798457966) rotate(0 69.93994140625 37.5)"><text x="69.93994140625" y="17.52" font-family="Virgil, Segoe UI Emoji" font-size="20px" fill="#1e1e1e" text-anchor="middle" style="white-space: pre;" direction="ltr" dominant-baseline="alphabetic">Ditto </text><text x="69.93994140625" y="42.519999999999996" font-family="Virgil, Segoe UI Emoji" font-size="20px" fill="#1e1e1e" text-anchor="middle" style="white-space: pre;" direction="ltr" dominant-baseline="alphabetic">Programmable </text><text x="69.93994140625" y="67.52" font-family="Virgil, Segoe UI Emoji" font-size="20px" fill="#1e1e1e" text-anchor="middle" style="white-space: pre;" direction="ltr" dominant-baseline="alphabetic">Vaults</text></g></g><g clip-path="url(#B_QcRftL3-QeEXV-iN9Js)"><g stroke-linecap="round" transform="translate(288.85706072223 822.1384586060019) rotate(0 201.06840551949244 120.89548832931007)"><path d="M32 0 C110.14 0.1, 187.75 -1.18, 370.14 0 M32 0 C138.29 -0.87, 244.19 -0.78, 370.14 0 M370.14 0 C392.61 -1.6, 403.14 9.8, 402.14 32 M370.14 0 C390.07 1.63, 400.28 9.83, 402.14 32 M402.14 32 C404.73 100.55, 404.01 165.08, 402.14 209.79 M402.14 32 C400.9 75.57, 400.68 119.62, 402.14 209.79 M402.14 209.79 C402.22 232.92, 391.58 241.19, 370.14 241.79 M402.14 209.79 C401.13 231.99, 392.67 243.52, 370.14 241.79 M370.14 241.79 C289.06 245.27, 207.68 244.22, 32 241.79 M370.14 241.79 C285.23 240.61, 199.12 240.61, 32 241.79 M32 241.79 C10.17 240.53, -1.25 231.24, 0 209.79 M32 241.79 C10.25 243.03, -0.94 229.77, 0 209.79 M0 209.79 C1.4 151.47, -0.33 92.66, 0 32 M0 209.79 C-1.95 164.8, -1.94 119.39, 0 32 M0 32 C-0.13 11.04, 10.01 0.9, 32 0 M0 32 C-1.85 10.39, 8.57 1.93, 32 0" stroke="#f08c00" stroke-width="2" fill="none"></path></g></g><g clip-path="url(#B_QcRftL3-QeEXV-iN9Js)"><g transform="translate(586.7605419882657 827.1384586060019) rotate(0 49.61666488647461 12.5)"><text x="99.23332977294922" y="17.52" font-family="Virgil, Segoe UI Emoji" font-size="20px" fill="#f08c00" text-anchor="end" style="white-space: pre;" direction="ltr" dominant-baseline="alphabetic">Attesters</text></g></g><g clip-path="url(#B_QcRftL3-QeEXV-iN9Js)"><g mask="url(#mask-JBFCGSaYFImU6RliQ_UT-)" stroke-linecap="round"><g transform="translate(384.3493789816712 748.9174793634345) rotate(0 0.047720999906232464 -91.91270613705228)"><path d="M-0.3 0.16 C-0.35 -30.29, 0.34 -152.81, 0.55 -183.61 M1.74 -0.81 C1.5 -31.56, 0.03 -155.12, -0.16 -185.61" stroke="#1971c2" stroke-width="2" fill="none"></path></g><g transform="translate(384.3493789816712 748.9174793634345) rotate(0 0.047720999906232464 -91.91270613705228)"><path d="M8.61 -162.2 C5.8 -170.15, 2.65 -178.2, -0.16 -185.61 M8.61 -162.2 C6.96 -168.49, 4.85 -173.56, -0.16 -185.61" stroke="#1971c2" stroke-width="2" fill="none"></path></g><g transform="translate(384.3493789816712 748.9174793634345) rotate(0 0.047720999906232464 -91.91270613705228)"><path d="M-8.49 -162.04 C-4.96 -170, -1.77 -178.12, -0.16 -185.61 M-8.49 -162.04 C-6.17 -168.27, -4.31 -173.38, -0.16 -185.61" stroke="#1971c2" stroke-width="2" fill="none"></path></g></g><mask id="mask-JBFCGSaYFImU6RliQ_UT-"><rect x="0" y="0" fill="#fff" width="484.44482098148364" height="1032.742891637539"></rect><rect x="330.1304335692239" y="637.0047732263822" fill="#000" width="108.53333282470703" height="40" opacity="1"></rect></mask></g><g clip-path="url(#B_QcRftL3-QeEXV-iN9Js)"><g transform="translate(330.1304335692239 637.0047732263822) rotate(0 54.938024827683876 19.18411802663468)"><text x="54.266666412353516" y="14.016" font-family="Virgil, Segoe UI Emoji" font-size="16px" fill="#1971c2" text-anchor="middle" style="white-space: pre;" direction="ltr" dominant-baseline="alphabetic">Registers as </text><text x="54.266666412353516" y="34.016" font-family="Virgil, Segoe UI Emoji" font-size="16px" fill="#1971c2" text-anchor="middle" style="white-space: pre;" direction="ltr" dominant-baseline="alphabetic">executor</text></g></g><g clip-path="url(#B_QcRftL3-QeEXV-iN9Js)"><g mask="url(#mask-ZIPJvjg-CqEfV9t1yZEqy)" stroke-linecap="round"><g transform="translate(396.7671955644437 402.04817399817557) rotate(0 0 -80.15617003557304)"><path d="M0.82 -0.81 C0.91 -27.68, 0.97 -134.22, 0.94 -160.96 M-0.2 1.38 C-0.24 -25.36, 0.41 -132.79, 0.49 -159.76" stroke="#1971c2" stroke-width="2" fill="none"></path></g><g transform="translate(396.7671955644437 402.04817399817557) rotate(0 0 -80.15617003557304)"><path d="M8.93 -136.23 C4.69 -142.55, 2.11 -150.93, 0.49 -159.76 M8.93 -136.23 C6.35 -140.74, 4.29 -146.98, 0.49 -159.76" stroke="#1971c2" stroke-width="2" fill="none"></path></g><g transform="translate(396.7671955644437 402.04817399817557) rotate(0 0 -80.15617003557304)"><path d="M-8.17 -136.31 C-6.64 -142.72, -3.44 -151.07, 0.49 -159.76 M-8.17 -136.31 C-6.99 -140.72, -5.28 -146.95, 0.49 -159.76" stroke="#1971c2" stroke-width="2" fill="none"></path></g></g><mask id="mask-ZIPJvjg-CqEfV9t1yZEqy"><rect x="0" y="0" fill="#fff" width="496.7671955644437" height="662.3605140693218"></rect><rect x="312.33524976366243" y="291.89200396260253" fill="#000" width="168.8638916015625" height="60" opacity="1"></rect></mask></g><g clip-path="url(#B_QcRftL3-QeEXV-iN9Js)"><g transform="translate(312.33524976366243 291.89200396260253) rotate(0 84.80429639918839 30.363922580620283)"><text x="84.43194580078125" y="14.016" font-family="Virgil, Segoe UI Emoji" font-size="16px" fill="#1971c2" text-anchor="middle" style="white-space: pre;" direction="ltr" dominant-baseline="alphabetic">Fetches the total </text><text x="84.43194580078125" y="34.016" font-family="Virgil, Segoe UI Emoji" font-size="16px" fill="#1971c2" text-anchor="middle" style="white-space: pre;" direction="ltr" dominant-baseline="alphabetic">delegated stake for </text><text x="84.43194580078125" y="54.016" font-family="Virgil, Segoe UI Emoji" font-size="16px" fill="#1971c2" text-anchor="middle" style="white-space: pre;" direction="ltr" dominant-baseline="alphabetic">operators</text></g></g><g clip-path="url(#B_QcRftL3-QeEXV-iN9Js)"><g mask="url(#mask-jwBv3h1MtkqXgmXSF6PgV)" stroke-linecap="round"><g transform="translate(525.2698373854 227.01516821309679) rotate(0 0 109.36808311995844)"><path d="M0.68 -0.96 C0.63 35.52, 0.84 181.46, 0.6 218.21 M-0.42 1.15 C-0.66 37.84, -0.4 183.39, -0.03 219.48" stroke="#1971c2" stroke-width="2" fill="none"></path></g><g transform="translate(525.2698373854 227.01516821309679) rotate(0 0 109.36808311995844)"><path d="M-8.71 196.03 C-7.15 205.86, -3.14 212.52, -0.03 219.48 M-8.71 196.03 C-4.92 205.69, -1.82 213.91, -0.03 219.48" stroke="#1971c2" stroke-width="2" fill="none"></path></g><g transform="translate(525.2698373854 227.01516821309679) rotate(0 0 109.36808311995844)"><path d="M8.39 195.94 C3.48 205.9, 1.01 212.59, -0.03 219.48 M8.39 195.94 C5.84 205.57, 2.6 213.83, -0.03 219.48" stroke="#1971c2" stroke-width="2" fill="none"></path></g></g><mask id="mask-jwBv3h1MtkqXgmXSF6PgV"><rect x="0" y="0" fill="#fff" width="625.2698373854" height="545.7513344530137"></rect><rect x="487.0058679640133" y="316.38325133305534" fill="#000" width="76.52793884277344" height="40" opacity="1"></rect></mask></g><g clip-path="url(#B_QcRftL3-QeEXV-iN9Js)"><g transform="translate(487.0058679640133 316.38325133305534) rotate(0 38.36466016242048 19.890171117326076)"><text x="38.26396942138672" y="14.016" font-family="Virgil, Segoe UI Emoji" font-size="16px" fill="#1971c2" text-anchor="middle" style="white-space: pre;" direction="ltr" dominant-baseline="alphabetic">Available</text><text x="38.26396942138672" y="34.016" font-family="Virgil, Segoe UI Emoji" font-size="16px" fill="#1971c2" text-anchor="middle" style="white-space: pre;" direction="ltr" dominant-baseline="alphabetic">operators</text></g></g><g clip-path="url(#B_QcRftL3-QeEXV-iN9Js)"><g stroke-linecap="round" transform="translate(431.68625334192257 459.14984977978906) rotate(0 76.35124574758993 35)"><path d="M17.5 0 C60.11 -0.9, 99.16 2.23, 135.2 0 M17.5 0 C64.68 -0.44, 109.86 -1.08, 135.2 0 M135.2 0 C146.03 1.19, 151.73 5.25, 152.7 17.5 M135.2 0 C145.24 -0.21, 152.8 7.9, 152.7 17.5 M152.7 17.5 C153.35 29.23, 154.1 37.67, 152.7 52.5 M152.7 17.5 C154.03 28.24, 153.24 38.94, 152.7 52.5 M152.7 52.5 C154.5 63.4, 148.43 69.06, 135.2 70 M152.7 52.5 C152.17 63.07, 146.3 68.55, 135.2 70 M135.2 70 C108.34 68.96, 78.15 70.36, 17.5 70 M135.2 70 C103.85 70.02, 72.26 70, 17.5 70 M17.5 70 C7.26 70.13, -1.37 63.9, 0 52.5 M17.5 70 C4.29 68.4, -0.15 64.6, 0 52.5 M0 52.5 C-0.4 41.33, 1.52 35.06, 0 17.5 M0 52.5 C1.02 42.23, 0.78 31.06, 0 17.5 M0 17.5 C1.35 5.28, 6.82 -0.06, 17.5 0 M0 17.5 C-0.2 7.31, 8.02 1.23, 17.5 0" stroke="#1971c2" stroke-width="2" fill="none"></path></g></g><g clip-path="url(#B_QcRftL3-QeEXV-iN9Js)"><g transform="translate(447.84552826431536 464.14984977978906) rotate(0 60.19197082519531 30)"><text x="60.19197082519531" y="14.016" font-family="Virgil, Segoe UI Emoji" font-size="16px" fill="#1971c2" text-anchor="middle" style="white-space: pre;" direction="ltr" dominant-baseline="alphabetic">Keep available </text><text x="60.19197082519531" y="34.016" font-family="Virgil, Segoe UI Emoji" font-size="16px" fill="#1971c2" text-anchor="middle" style="white-space: pre;" direction="ltr" dominant-baseline="alphabetic">operators for </text><text x="60.19197082519531" y="54.016" font-family="Virgil, Segoe UI Emoji" font-size="16px" fill="#1971c2" text-anchor="middle" style="white-space: pre;" direction="ltr" dominant-baseline="alphabetic">current epoch</text></g></g><g clip-path="url(#B_QcRftL3-QeEXV-iN9Js)"><g mask="url(#mask-NR1OkRsm8yuuOr8nAdbuH)" stroke-linecap="round"><g transform="translate(566.339533287668 535.7862374372703) rotate(0 2.14693517228352 109.88232179438171)"><path d="M0.91 1.12 C1.91 37.91, 4.33 183.86, 5.07 220.32 M-0.07 0.66 C0.93 37.14, 3.65 181.72, 4.52 218.49" stroke="#1971c2" stroke-width="2" fill="none"></path></g><g transform="translate(566.339533287668 535.7862374372703) rotate(0 2.14693517228352 109.88232179438171)"><path d="M-4.52 195.18 C-0.76 201.51, 0.29 207.08, 4.52 218.49 M-4.52 195.18 C-2.19 203.07, 0.55 209.42, 4.52 218.49" stroke="#1971c2" stroke-width="2" fill="none"></path></g><g transform="translate(566.339533287668 535.7862374372703) rotate(0 2.14693517228352 109.88232179438171)"><path d="M12.58 194.82 C12.59 201.36, 9.89 207.01, 4.52 218.49 M12.58 194.82 C9.59 202.73, 7.02 209.2, 4.52 218.49" stroke="#1971c2" stroke-width="2" fill="none"></path></g></g><mask id="mask-NR1OkRsm8yuuOr8nAdbuH"><rect x="0" y="0" fill="#fff" width="670.6334036322351" height="855.5508810260337"></rect><rect x="486.00313868700323" y="615.6685592316521" fill="#000" width="164.96665954589844" height="60" opacity="1"></rect></mask></g><g clip-path="url(#B_QcRftL3-QeEXV-iN9Js)"><g transform="translate(486.00313868700323 615.6685592316521) rotate(0 82.83189890296126 30.610474846204625)"><text x="82.48332977294922" y="14.016" font-family="Virgil, Segoe UI Emoji" font-size="16px" fill="#1971c2" text-anchor="middle" style="white-space: pre;" direction="ltr" dominant-baseline="alphabetic">Determines the role </text><text x="82.48332977294922" y="34.016" font-family="Virgil, Segoe UI Emoji" font-size="16px" fill="#1971c2" text-anchor="middle" style="white-space: pre;" direction="ltr" dominant-baseline="alphabetic">for next block and </text><text x="82.48332977294922" y="54.016" font-family="Virgil, Segoe UI Emoji" font-size="16px" fill="#1971c2" text-anchor="middle" style="white-space: pre;" direction="ltr" dominant-baseline="alphabetic">distributes workflows</text></g></g><g clip-path="url(#B_QcRftL3-QeEXV-iN9Js)"><g mask="url(#mask-QmTpwtRHiFy-DAj7lMZ_9)" stroke-linecap="round"><g transform="translate(901.407167419251 879.6572327143247) rotate(0 0 -169.5086426132691)"><path d="M1.05 0.13 C0.88 -56.57, -0.04 -283.25, -0.3 -339.66 M0.15 -0.85 C-0.28 -57.45, -1.13 -281.89, -1.41 -338.46" stroke="#2f9e44" stroke-width="2" fill="none"></path></g><g transform="translate(901.407167419251 879.6572327143247) rotate(0 0 -169.5086426132691)"><path d="M7.25 -315 C4.2 -323.97, -0.23 -332.86, -1.41 -338.46 M7.25 -315 C3.54 -323.55, 1.18 -330.99, -1.41 -338.46" stroke="#2f9e44" stroke-width="2" fill="none"></path></g><g transform="translate(901.407167419251 879.6572327143247) rotate(0 0 -169.5086426132691)"><path d="M-9.86 -314.93 C-6.67 -324.07, -4.88 -332.99, -1.41 -338.46 M-9.86 -314.93 C-7.41 -323.45, -3.62 -330.92, -1.41 -338.46" stroke="#2f9e44" stroke-width="2" fill="none"></path></g></g><mask id="mask-QmTpwtRHiFy-DAj7lMZ_9"><rect x="0" y="0" fill="#fff" width="1001.407167419251" height="1318.6745179408629"></rect><rect x="814.6872043455205" y="670.1485901010556" fill="#000" width="173.43992614746094" height="80" opacity="1"></rect></mask></g><g clip-path="url(#B_QcRftL3-QeEXV-iN9Js)"><g transform="translate(814.6872043455205 670.1485901010556) rotate(0 86.54343005985993 39.744161025807216)"><text x="86.71996307373047" y="14.016" font-family="Virgil, Segoe UI Emoji" font-size="16px" fill="#2f9e44" text-anchor="middle" style="white-space: pre;" direction="ltr" dominant-baseline="alphabetic">Broadcasts </text><text x="86.71996307373047" y="34.016" font-family="Virgil, Segoe UI Emoji" font-size="16px" fill="#2f9e44" text-anchor="middle" style="white-space: pre;" direction="ltr" dominant-baseline="alphabetic">transaction Y to </text><text x="86.71996307373047" y="54.016" font-family="Virgil, Segoe UI Emoji" font-size="16px" fill="#2f9e44" text-anchor="middle" style="white-space: pre;" direction="ltr" dominant-baseline="alphabetic">execute automations </text><text x="86.71996307373047" y="74.016" font-family="Virgil, Segoe UI Emoji" font-size="16px" fill="#2f9e44" text-anchor="middle" style="white-space: pre;" direction="ltr" dominant-baseline="alphabetic">A, B, C</text></g></g><g clip-path="url(#B_QcRftL3-QeEXV-iN9Js)"><g stroke-linecap="round" transform="translate(460 1140) rotate(0 110.74211649867812 79.56681479526867)"><path d="M32 0 C76.48 -0.31, 118.01 -0.76, 189.48 0 M32 0 C77.86 -1.71, 123.18 -1.04, 189.48 0 M189.48 0 C211.86 1.51, 220.28 10.93, 221.48 32 M189.48 0 C213 0.01, 223.77 10.18, 221.48 32 M221.48 32 C220.27 64.09, 220.09 92.6, 221.48 127.13 M221.48 32 C220.62 56.08, 221.07 80.58, 221.48 127.13 M221.48 127.13 C220.66 147.29, 211.4 158.47, 189.48 159.13 M221.48 127.13 C220.11 149.41, 211 158.08, 189.48 159.13 M189.48 159.13 C143.79 158.89, 97.56 158.92, 32 159.13 M189.48 159.13 C152.87 159.88, 116.11 159.31, 32 159.13 M32 159.13 C8.84 160.81, 1.25 148.42, 0 127.13 M32 159.13 C9.63 161.33, 1.99 148.82, 0 127.13 M0 127.13 C0.01 93.66, 0.5 58.04, 0 32 M0 127.13 C-0.35 93, -0.51 58, 0 32 M0 32 C-0.67 9.75, 12.34 -0.06, 32 0 M0 32 C1.04 9.82, 12.73 0.81, 32 0" stroke="#f08c00" stroke-width="2" fill="none"></path></g></g><g clip-path="url(#B_QcRftL3-QeEXV-iN9Js)"><g transform="translate(485.4205070016069 1145) rotate(0 85.32160949707031 24.771836170325514)"><text x="85.32160949707031" y="17.3601027881641" font-family="Virgil, Segoe UI Emoji" font-size="19.81746893626039px" fill="#f08c00" text-anchor="middle" style="white-space: pre;" direction="ltr" dominant-baseline="alphabetic">Aggregator/task </text><text x="85.32160949707031" y="42.131938958489584" font-family="Virgil, Segoe UI Emoji" font-size="19.81746893626039px" fill="#f08c00" text-anchor="middle" style="white-space: pre;" direction="ltr" dominant-baseline="alphabetic">sender</text></g></g><g clip-path="url(#B_QcRftL3-QeEXV-iN9Js)"><g transform="translate(500 1220) rotate(0 83.33922576904297 29.72620340439056)"><text x="83.33922576904297" y="13.888082230531282" font-family="Virgil, Segoe UI Emoji" font-size="15.853975149008313px" fill="#f08c00" text-anchor="middle" style="white-space: pre;" direction="ltr" dominant-baseline="alphabetic">Sends validate task </text><text x="83.33922576904297" y="33.70555116679167" font-family="Virgil, Segoe UI Emoji" font-size="15.853975149008313px" fill="#f08c00" text-anchor="middle" style="white-space: pre;" direction="ltr" dominant-baseline="alphabetic">on chain,</text><text x="83.33922576904297" y="53.52302010305206" font-family="Virgil, Segoe UI Emoji" font-size="15.853975149008313px" fill="#f08c00" text-anchor="middle" style="white-space: pre;" direction="ltr" dominant-baseline="alphabetic">to attesters (p2p)</text></g></g><g clip-path="url(#B_QcRftL3-QeEXV-iN9Js)"><g mask="url(#mask-xUynSoVr-9_jhAIaM7P49)" stroke-linecap="round"><g transform="translate(437.53058504205546 1248.8180190778007) rotate(0 -64.33676215991272 -91.94429190658934)"><path d="M0.05 1.08 C-21.24 -6.75, -107.07 -16.29, -128.61 -47.04 C-150.15 -77.79, -129.29 -160.78, -129.2 -183.44 M-1.38 0.6 C-22.75 -7.04, -108.05 -14.67, -129.52 -45.7 C-151 -76.72, -130.59 -162.32, -130.24 -185.54" stroke="#f08c00" stroke-width="2" fill="none"></path></g><g transform="translate(437.53058504205546 1248.8180190778007) rotate(0 -64.33676215991272 -91.94429190658934)"><path d="M-124.49 -161.22 C-123.99 -166.68, -127.71 -173.24, -130.24 -185.54 M-124.49 -161.22 C-127.16 -169.25, -127.55 -177.59, -130.24 -185.54" stroke="#f08c00" stroke-width="2" fill="none"></path></g><g transform="translate(437.53058504205546 1248.8180190778007) rotate(0 -64.33676215991272 -91.94429190658934)"><path d="M-141.47 -163.21 C-137.09 -168.22, -136.91 -174.32, -130.24 -185.54 M-141.47 -163.21 C-138.4 -170.7, -133.06 -178.37, -130.24 -185.54" stroke="#f08c00" stroke-width="2" fill="none"></path></g></g><mask id="mask-xUynSoVr-9_jhAIaM7P49"><rect x="0" y="0" fill="#fff" width="666.2041093618809" height="1532.7066028909794"></rect><rect x="227.8571064985972" y="1182.1384586060017" fill="#000" width="161.99990844726562" height="40" opacity="1"></rect></mask></g><g clip-path="url(#B_QcRftL3-QeEXV-iN9Js)"><g transform="translate(227.8571064985972 1182.138458606002) rotate(0 140.02948188284972 -25.55446934453397)"><text x="80.99995422363281" y="14.016" font-family="Virgil, Segoe UI Emoji" font-size="16px" fill="#f08c00" text-anchor="middle" style="white-space: pre;" direction="ltr" dominant-baseline="alphabetic">Check if executor</text><text x="80.99995422363281" y="34.016" font-family="Virgil, Segoe UI Emoji" font-size="16px" fill="#f08c00" text-anchor="middle" style="white-space: pre;" direction="ltr" dominant-baseline="alphabetic">was correct in epoch</text></g></g><g clip-path="url(#B_QcRftL3-QeEXV-iN9Js)"><g mask="url(#mask-rNDoJKef-XQNn-bhsengz)" stroke-linecap="round"><g transform="translate(693.3236273566472 1197.854604722768) rotate(0 104.72518107789438 -0.12389036008028143)"><path d="M-0.53 0.45 C34.47 0.62, 175.2 0.75, 210.07 0.66 M1.4 -0.36 C36.29 -0.48, 174.48 -1.27, 209.45 -0.99" stroke="#f08c00" stroke-width="2" fill="none"></path></g><g transform="translate(693.3236273566472 1197.854604722768) rotate(0 104.72518107789438 -0.12389036008028143)"><path d="M185.96 7.55 C193.91 6.09, 201.84 1.23, 209.45 -0.99 M185.96 7.55 C194.23 4.67, 200.8 1.73, 209.45 -0.99" stroke="#f08c00" stroke-width="2" fill="none"></path></g><g transform="translate(693.3236273566472 1197.854604722768) rotate(0 104.72518107789438 -0.12389036008028143)"><path d="M185.96 -9.55 C193.86 -5.79, 201.79 -5.42, 209.45 -0.99 M185.96 -9.55 C194.39 -7.08, 200.96 -4.67, 209.45 -0.99" stroke="#f08c00" stroke-width="2" fill="none"></path></g></g><mask id="mask-rNDoJKef-XQNn-bhsengz"><rect x="0" y="0" fill="#fff" width="1002.773989512436" height="1298.1023854429286"></rect><rect x="729.9368470697955" y="1167.7307143626876" fill="#000" width="136.2239227294922" height="60" opacity="1"></rect></mask></g><g clip-path="url(#B_QcRftL3-QeEXV-iN9Js)"><g transform="translate(729.9368470697955 1167.7307143626876) rotate(0 68.16002907939219 29.940487921967758)"><text x="68.1119613647461" y="14.016" font-family="Virgil, Segoe UI Emoji" font-size="16px" fill="#f08c00" text-anchor="middle" style="white-space: pre;" direction="ltr" dominant-baseline="alphabetic">Executor verdict,</text><text x="68.1119613647461" y="34.016" font-family="Virgil, Segoe UI Emoji" font-size="16px" fill="#f08c00" text-anchor="middle" style="white-space: pre;" direction="ltr" dominant-baseline="alphabetic">attesters </text><text x="68.1119613647461" y="54.016" font-family="Virgil, Segoe UI Emoji" font-size="16px" fill="#f08c00" text-anchor="middle" style="white-space: pre;" direction="ltr" dominant-baseline="alphabetic">participating info</text></g></g><g clip-path="url(#B_QcRftL3-QeEXV-iN9Js)"><g stroke-linecap="round" transform="translate(748.85706072223 882.1384586060019) rotate(0 100.8725348631533 20)"><path d="M10 0 C81.34 -1.39, 152.58 -0.01, 191.75 0 M10 0 C57.34 0.38, 104.89 0.22, 191.75 0 M191.75 0 C197.16 0.12, 201.38 4.41, 201.75 10 M191.75 0 C197.47 -1.35, 202.41 2.57, 201.75 10 M201.75 10 C200.91 14.63, 200.87 21.04, 201.75 30 M201.75 10 C200.94 15.44, 201.54 22.45, 201.75 30 M201.75 30 C201.08 37.56, 196.8 39.76, 191.75 40 M201.75 30 C199.65 38.6, 199.85 39.95, 191.75 40 M191.75 40 C145.74 42.82, 97.95 42.93, 10 40 M191.75 40 C142.15 40.59, 93.67 40.49, 10 40 M10 40 C4.43 41, 0.79 36.95, 0 30 M10 40 C2.56 38.94, 1.93 36.6, 0 30 M0 30 C0.77 21.5, -1.32 17.81, 0 10 M0 30 C-0.67 24.26, -0.71 19.68, 0 10 M0 10 C-1.77 3.52, 3.13 -0.95, 10 0 M0 10 C-2.24 2.62, 4.94 1.08, 10 0" stroke="#2f9e44" stroke-width="2" fill="none"></path></g></g><g clip-path="url(#B_QcRftL3-QeEXV-iN9Js)"><g transform="translate(810.3537334638022 887.1384586060019) rotate(0 39.37586212158203 11.187205046836425)"><text x="39.37586212158203" y="15.679986593645967" font-family="Virgil, Segoe UI Emoji" font-size="17.89952807493832px" fill="#2f9e44" text-anchor="middle" style="white-space: pre;" direction="ltr" dominant-baseline="alphabetic">Executor</text></g></g><g clip-path="url(#B_QcRftL3-QeEXV-iN9Js)"><g transform="translate(916.495942913607 1154.5134632077516) rotate(0 82.7819595336914 52.5)"><text x="82.7819595336914" y="24.528" font-family="Virgil, Segoe UI Emoji" font-size="28px" fill="#f08c00" text-anchor="middle" style="white-space: pre;" direction="ltr" dominant-baseline="alphabetic">Ditto</text><text x="82.7819595336914" y="59.528" font-family="Virgil, Segoe UI Emoji" font-size="28px" fill="#f08c00" text-anchor="middle" style="white-space: pre;" direction="ltr" dominant-baseline="alphabetic">Attestation</text><text x="82.7819595336914" y="94.52799999999999" font-family="Virgil, Segoe UI Emoji" font-size="28px" fill="#f08c00" text-anchor="middle" style="white-space: pre;" direction="ltr" dominant-baseline="alphabetic">Center</text></g></g><g clip-path="url(#B_QcRftL3-QeEXV-iN9Js)"><g mask="url(#mask-QfTlNSJIabTHIXdIDCORg)" stroke-linecap="round"><g transform="translate(807.9680173899142 300.2443582242511) rotate(0 0 79.5503405681186)"><path d="M-0.3 -0.76 C-0.38 25.87, -0.77 132.42, -0.75 159.17 M1.75 1.46 C2.08 28.34, 2.04 134.7, 1.57 160.75" stroke="#1e1e1e" stroke-width="2" fill="none"></path></g><g transform="translate(807.9680173899142 300.2443582242511) rotate(0 0 79.5503405681186)"><path d="M-6.81 137.19 C-5.86 142.48, -2.16 149.89, 1.57 160.75 M-6.81 137.19 C-3.65 145.24, -1.58 154.32, 1.57 160.75" stroke="#1e1e1e" stroke-width="2" fill="none"></path></g><g transform="translate(807.9680173899142 300.2443582242511) rotate(0 0 79.5503405681186)"><path d="M10.29 137.32 C6.5 142.53, 5.47 149.91, 1.57 160.75 M10.29 137.32 C7.4 145.23, 3.42 154.25, 1.57 160.75" stroke="#1e1e1e" stroke-width="2" fill="none"></path></g></g><mask id="mask-QfTlNSJIabTHIXdIDCORg"><rect x="0" y="0" fill="#fff" width="907.9680173899142" height="559.3450393604883"></rect><rect x="771.68805675759" y="359.7946987923697" fill="#000" width="72.55992126464844" height="40" opacity="1"></rect></mask></g><g clip-path="url(#B_QcRftL3-QeEXV-iN9Js)"><g transform="translate(771.68805675759 359.7946987923697) rotate(0 36.88561838251462 20.44499213262452)"><text x="36.27996063232422" y="14.016" font-family="Virgil, Segoe UI Emoji" font-size="16px" fill="#1e1e1e" text-anchor="middle" style="white-space: pre;" direction="ltr" dominant-baseline="alphabetic">register </text><text x="36.27996063232422" y="34.016" font-family="Virgil, Segoe UI Emoji" font-size="16px" fill="#1e1e1e" text-anchor="middle" style="white-space: pre;" direction="ltr" dominant-baseline="alphabetic">workflows</text></g></g><g clip-path="url(#B_QcRftL3-QeEXV-iN9Js)"><g transform="translate(588.85706072223 862.1384586060019) rotate(0 50 60)"><text x="50" y="14.016000000000005" font-family="Virgil, Segoe UI Emoji" font-size="16.000000000000007px" fill="#f08c00" text-anchor="middle" style="white-space: pre;" direction="ltr" dominant-baseline="alphabetic">Keeps track</text><text x="50" y="34.01600000000001" font-family="Virgil, Segoe UI Emoji" font-size="16.000000000000007px" fill="#f08c00" text-anchor="middle" style="white-space: pre;" direction="ltr" dominant-baseline="alphabetic">of fired </text><text x="50" y="54.01600000000002" font-family="Virgil, Segoe UI Emoji" font-size="16.000000000000007px" fill="#f08c00" text-anchor="middle" style="white-space: pre;" direction="ltr" dominant-baseline="alphabetic">triggers</text><text x="50" y="74.01600000000002" font-family="Virgil, Segoe UI Emoji" font-size="16.000000000000007px" fill="#f08c00" text-anchor="middle" style="white-space: pre;" direction="ltr" dominant-baseline="alphabetic">for later</text><text x="50" y="94.01600000000003" font-family="Virgil, Segoe UI Emoji" font-size="16.000000000000007px" fill="#f08c00" text-anchor="middle" style="white-space: pre;" direction="ltr" dominant-baseline="alphabetic">execution </text><text x="50" y="114.01600000000003" font-family="Virgil, Segoe UI Emoji" font-size="16.000000000000007px" fill="#f08c00" text-anchor="middle" style="white-space: pre;" direction="ltr" dominant-baseline="alphabetic">validation</text></g></g><g clip-path="url(#B_QcRftL3-QeEXV-iN9Js)"><g stroke-linecap="round" transform="translate(320 860) rotate(0 44.65377666023778 42.55242246446198)"><path d="M21.28 0 C33.28 0.77, 46.97 -1, 68.03 0 M21.28 0 C37.12 -0.26, 53.86 0.28, 68.03 0 M68.03 0 C80.85 -0.27, 87.97 5.7, 89.31 21.28 M68.03 0 C82.07 0.43, 88.55 8.12, 89.31 21.28 M89.31 21.28 C90.94 31.86, 89.21 39.05, 89.31 63.83 M89.31 21.28 C90.3 37.52, 90.35 54.65, 89.31 63.83 M89.31 63.83 C90.29 77.96, 82.04 86.39, 68.03 85.1 M89.31 63.83 C91.49 79.24, 83.48 86.26, 68.03 85.1 M68.03 85.1 C51.24 86.62, 36.23 85.85, 21.28 85.1 M68.03 85.1 C54.92 84.57, 44.21 85.01, 21.28 85.1 M21.28 85.1 C7.75 86.5, -1.21 77.49, 0 63.83 M21.28 85.1 C5.61 86.55, -2.04 78.23, 0 63.83 M0 63.83 C-0.42 52.9, 1.14 38.74, 0 21.28 M0 63.83 C0.43 52.81, -0.69 42.11, 0 21.28 M0 21.28 C1.19 8.86, 6.41 -1.99, 21.28 0 M0 21.28 C-2.26 7.33, 7.2 1.74, 21.28 0" stroke="#f08c00" stroke-width="2" fill="none"></path></g></g><g clip-path="url(#B_QcRftL3-QeEXV-iN9Js)"><g transform="translate(355.3837800171714 890.0524224644621) rotate(0 9.269996643066406 12.5)"><text x="9.269996643066406" y="17.52" font-family="Virgil, Segoe UI Emoji" font-size="20px" fill="#f08c00" text-anchor="middle" style="white-space: pre;" direction="ltr" dominant-baseline="alphabetic">A1</text></g></g><g clip-path="url(#B_QcRftL3-QeEXV-iN9Js)"><g stroke-linecap="round" transform="translate(500 960) rotate(0 44.65377666023778 42.55242246446198)"><path d="M21.28 0 C37.47 0.44, 51.11 0.1, 68.03 0 M21.28 0 C32.39 -0.17, 44.2 -0.73, 68.03 0 M68.03 0 C82.09 0.37, 88.65 7.99, 89.31 21.28 M68.03 0 C80.36 -0.28, 87.21 9.02, 89.31 21.28 M89.31 21.28 C91.21 38.43, 89.61 53.36, 89.31 63.83 M89.31 21.28 C90.09 31.51, 89.51 42.45, 89.31 63.83 M89.31 63.83 C91.21 79.08, 83.32 86.11, 68.03 85.1 M89.31 63.83 C90.21 78.34, 81.45 84.05, 68.03 85.1 M68.03 85.1 C49.36 87.11, 32.85 83.72, 21.28 85.1 M68.03 85.1 C57.6 85.68, 45.91 84.72, 21.28 85.1 M21.28 85.1 C5.8 86.36, -1.77 78.2, 0 63.83 M21.28 85.1 C6.86 84.01, -2.24 77.3, 0 63.83 M0 63.83 C-1.09 49.3, 0.17 33.71, 0 21.28 M0 63.83 C0.78 52.58, -0.16 38.57, 0 21.28 M0 21.28 C-1.97 7.3, 7.19 1.51, 21.28 0 M0 21.28 C-2.18 5.02, 7.13 1.3, 21.28 0" stroke="#f08c00" stroke-width="2" fill="none"></path></g></g><g clip-path="url(#B_QcRftL3-QeEXV-iN9Js)"><g transform="translate(531.6937852051597 990.052422464462) rotate(0 12.959991455078125 12.5)"><text x="12.959991455078125" y="17.52" font-family="Virgil, Segoe UI Emoji" font-size="20px" fill="#f08c00" text-anchor="middle" style="white-space: pre;" direction="ltr" dominant-baseline="alphabetic">A4</text></g></g><g clip-path="url(#B_QcRftL3-QeEXV-iN9Js)"><g stroke-linecap="round" transform="translate(380 960) rotate(0 44.65377666023778 42.55242246446198)"><path d="M21.28 0 C34.72 1.47, 50.2 -1.33, 68.03 0 M21.28 0 C34.61 0.51, 47.74 0.77, 68.03 0 M68.03 0 C80.6 -0.24, 87.48 8.77, 89.31 21.28 M68.03 0 C83.65 -0.05, 88.27 9.29, 89.31 21.28 M89.31 21.28 C88.2 39.08, 88.82 55.17, 89.31 63.83 M89.31 21.28 C90.22 34.46, 89.82 47.07, 89.31 63.83 M89.31 63.83 C90.1 78.3, 81.55 84.18, 68.03 85.1 M89.31 63.83 C91.23 77.95, 83.25 84.26, 68.03 85.1 M68.03 85.1 C48.41 86.34, 31.06 85.39, 21.28 85.1 M68.03 85.1 C50.09 85.61, 32.55 85.08, 21.28 85.1 M21.28 85.1 C6.89 84.15, -1.95 77.39, 0 63.83 M21.28 85.1 C8.7 86.18, -0.48 76.99, 0 63.83 M0 63.83 C-0.38 47.63, -0.02 34.33, 0 21.28 M0 63.83 C-0.84 47.4, 0.19 31.52, 0 21.28 M0 21.28 C-1.9 5.29, 7.13 1.13, 21.28 0 M0 21.28 C0.95 8.45, 7 0.81, 21.28 0" stroke="#f08c00" stroke-width="2" fill="none"></path></g></g><g clip-path="url(#B_QcRftL3-QeEXV-iN9Js)"><g transform="translate(411.2837815430503 990.052422464462) rotate(0 13.3699951171875 12.5)"><text x="13.3699951171875" y="17.52" font-family="Virgil, Segoe UI Emoji" font-size="20px" fill="#f08c00" text-anchor="middle" style="white-space: pre;" direction="ltr" dominant-baseline="alphabetic">A3</text></g></g><g clip-path="url(#B_QcRftL3-QeEXV-iN9Js)"><g stroke-linecap="round" transform="translate(440 860) rotate(0 44.65377666023778 42.55242246446198)"><path d="M21.28 0 C38.37 -1.02, 54.61 0.19, 68.03 0 M21.28 0 C35.37 -0.33, 50.16 0.63, 68.03 0 M68.03 0 C83.46 -0.04, 88.4 9, 89.31 21.28 M68.03 0 C84.21 0.36, 90.74 5.74, 89.31 21.28 M89.31 21.28 C89.13 36.75, 90.47 54.46, 89.31 63.83 M89.31 21.28 C89.94 36.46, 89.21 50.9, 89.31 63.83 M89.31 63.83 C90.98 77.96, 83.12 84.37, 68.03 85.1 M89.31 63.83 C91.37 78.82, 80.38 83.5, 68.03 85.1 M68.03 85.1 C51.65 84.05, 31.94 83.97, 21.28 85.1 M68.03 85.1 C50.97 84.67, 33.14 84.84, 21.28 85.1 M21.28 85.1 C8.49 86.04, -0.42 77.12, 0 63.83 M21.28 85.1 C8.49 85.53, 1.58 77.67, 0 63.83 M0 63.83 C1.76 52.21, -2 39.97, 0 21.28 M0 63.83 C-0.97 49.71, 0 37.97, 0 21.28 M0 21.28 C0.82 8.28, 7.01 0.7, 21.28 0 M0 21.28 C0.97 5.84, 7.97 -0.72, 21.28 0" stroke="#f08c00" stroke-width="2" fill="none"></path></g></g><g clip-path="url(#B_QcRftL3-QeEXV-iN9Js)"><g transform="translate(470.97044326332616 890.0524224644619) rotate(0 13.683333396911621 12.5)"><text x="13.683333396911621" y="17.52" font-family="Virgil, Segoe UI Emoji" font-size="20px" fill="#f08c00" text-anchor="middle" style="white-space: pre;" direction="ltr" dominant-baseline="alphabetic">A2</text></g></g><g clip-path="url(#B_QcRftL3-QeEXV-iN9Js)"><g mask="url(#mask-Ji9SOLFeS1wmN2KazTe-C)" stroke-linecap="round"><g transform="translate(422.5534134952868 1065.4764200983786) rotate(0 13.724930013022458 56.275604173828754)"><path d="M-0.97 -0.14 C-1.51 9.02, -8.93 36.75, -3.65 55.53 C1.64 74.31, 25.23 102.83, 30.75 112.53 M0.73 -1.27 C0.58 7.54, -6.45 34.76, -1.51 53.94 C3.43 73.12, 25.22 104.19, 30.38 113.83" stroke="#f08c00" stroke-width="2" fill="none"></path></g><g transform="translate(422.5534134952868 1065.4764200983786) rotate(0 13.724930013022458 56.275604173828754)"><path d="M10.88 98.18 C15.92 100.69, 23.04 107.94, 30.38 113.83 M10.88 98.18 C17.48 102.81, 23.05 106.73, 30.38 113.83" stroke="#f08c00" stroke-width="2" fill="none"></path></g><g transform="translate(422.5534134952868 1065.4764200983786) rotate(0 13.724930013022458 56.275604173828754)"><path d="M25.5 89.31 C26.67 94.07, 29.9 103.69, 30.38 113.83 M25.5 89.31 C27.71 96.72, 28.92 103.28, 30.38 113.83" stroke="#f08c00" stroke-width="2" fill="none"></path></g></g><mask id="mask-Ji9SOLFeS1wmN2KazTe-C"><rect x="0" y="0" fill="#fff" width="555.1101005119053" height="1278.027628446036"></rect><rect x="342.83333587646484" y="1110" fill="#000" width="154.3333282470703" height="20" opacity="1"></rect></mask></g><g clip-path="url(#B_QcRftL3-QeEXV-iN9Js)"><g transform="translate(342.83333587646484 1110) rotate(0 92.32708999338593 11.75813273686208)"><text x="77.16666412353516" y="14.016" font-family="Virgil, Segoe UI Emoji" font-size="16px" fill="#f08c00" text-anchor="middle" style="white-space: pre;" direction="ltr" dominant-baseline="alphabetic">Verdict on executor</text></g></g><g clip-path="url(#B_QcRftL3-QeEXV-iN9Js)"><g stroke-linecap="round"><g transform="translate(227.65188495235634 1103.4437478185566) rotate(0 428.9142072769682 0)"><path d="M0.75 -0.03 C143.81 0, 714.27 1.11, 857.29 1.15" stroke="#ff0000" stroke-width="2.5" fill="none" stroke-dasharray="1.5 8"></path></g></g><mask></mask></g><g clip-path="url(#B_QcRftL3-QeEXV-iN9Js)"><g transform="translate(21.597207915376202 1086.8137947092719) rotate(0 92.41666412353516 12.5)"><text x="92.41666412353516" y="17.52" font-family="Virgil, Segoe UI Emoji" font-size="20px" fill="#ff0000" text-anchor="middle" style="white-space: pre;" direction="ltr" dominant-baseline="alphabetic">Phase 0 ends here</text></g></g><g clip-path="url(#B_QcRftL3-QeEXV-iN9Js)"><g stroke-linecap="round"><g transform="translate(760 800) rotate(0 0 40)"><path d="M0 0 C0 17.88, 0 35.75, 0 80 M0 0 C0 27.82, 0 55.64, 0 80" stroke="#2f9e44" stroke-width="2" fill="none"></path></g><g transform="translate(760 800) rotate(0 0 40)"><path d="M-8.55 56.51 C-6.64 61.76, -4.73 67.01, 0 80 M-8.55 56.51 C-5.58 64.68, -2.6 72.85, 0 80" stroke="#2f9e44" stroke-width="2" fill="none"></path></g><g transform="translate(760 800) rotate(0 0 40)"><path d="M8.55 56.51 C6.64 61.76, 4.73 67.01, 0 80 M8.55 56.51 C5.58 64.68, 2.6 72.85, 0 80" stroke="#2f9e44" stroke-width="2" fill="none"></path></g></g><mask></mask></g><g clip-path="url(#B_QcRftL3-QeEXV-iN9Js)"><g stroke-linecap="round"><g transform="translate(760 800) rotate(0 -200 1.0692293030009523)"><path d="M0 0 C-35.19 0.36, -144.48 2.14, -211.14 2.14 C-277.81 2.14, -368.52 0.36, -400 0 M0 0 C-35.19 0.36, -144.48 2.14, -211.14 2.14 C-277.81 2.14, -368.52 0.36, -400 0" stroke="#2f9e44" stroke-width="2" fill="none"></path></g></g><mask></mask></g><g clip-path="url(#B_QcRftL3-QeEXV-iN9Js)"><g stroke-linecap="round"><g transform="translate(360 800) rotate(0 0 30)"><path d="M0 0 C0 10, 0 50, 0 60 M0 0 C0 10, 0 50, 0 60" stroke="#2f9e44" stroke-width="2" fill="none"></path></g><g transform="translate(360 800) rotate(0 0 30)"><path d="M-8.55 36.51 C-6.09 43.26, -3.63 50.02, 0 60 M-8.55 36.51 C-5.84 43.95, -3.13 51.4, 0 60" stroke="#2f9e44" stroke-width="2" fill="none"></path></g><g transform="translate(360 800) rotate(0 0 30)"><path d="M8.55 36.51 C6.09 43.26, 3.63 50.02, 0 60 M8.55 36.51 C5.84 43.95, 3.13 51.4, 0 60" stroke="#2f9e44" stroke-width="2" fill="none"></path></g></g><mask></mask></g><g clip-path="url(#B_QcRftL3-QeEXV-iN9Js)"><g stroke-linecap="round"><g transform="translate(480 800) rotate(0 0 30)"><path d="M0 0 C0 10, 0 50, 0 60 M0 0 C0 10, 0 50, 0 60" stroke="#2f9e44" stroke-width="2" fill="none"></path></g><g transform="translate(480 800) rotate(0 0 30)"><path d="M-8.55 36.51 C-5.6 44.61, -2.66 52.71, 0 60 M-8.55 36.51 C-5.43 45.09, -2.3 53.67, 0 60" stroke="#2f9e44" stroke-width="2" fill="none"></path></g><g transform="translate(480 800) rotate(0 0 30)"><path d="M8.55 36.51 C5.6 44.61, 2.66 52.71, 0 60 M8.55 36.51 C5.43 45.09, 2.3 53.67, 0 60" stroke="#2f9e44" stroke-width="2" fill="none"></path></g></g><mask></mask></g><g clip-path="url(#B_QcRftL3-QeEXV-iN9Js)"><g stroke-linecap="round"><g transform="translate(420 800) rotate(0 0 80)"><path d="M0 0 C0 26.67, 0 133.33, 0 160 M0 0 C0 26.67, 0 133.33, 0 160" stroke="#2f9e44" stroke-width="2" fill="none"></path></g><g transform="translate(420 800) rotate(0 0 80)"><path d="M-8.55 136.51 C-5.69 144.38, -2.82 152.24, 0 160 M-8.55 136.51 C-5.47 144.97, -2.39 153.44, 0 160" stroke="#2f9e44" stroke-width="2" fill="none"></path></g><g transform="translate(420 800) rotate(0 0 80)"><path d="M8.55 136.51 C5.69 144.38, 2.82 152.24, 0 160 M8.55 136.51 C5.47 144.97, 2.39 153.44, 0 160" stroke="#2f9e44" stroke-width="2" fill="none"></path></g></g><mask></mask></g><g clip-path="url(#B_QcRftL3-QeEXV-iN9Js)"><g stroke-linecap="round"><g transform="translate(540 800) rotate(0 0 80)"><path d="M0 0 C0 26.67, 0 133.33, 0 160 M0 0 C0 26.67, 0 133.33, 0 160" stroke="#2f9e44" stroke-width="2" fill="none"></path></g><g transform="translate(540 800) rotate(0 0 80)"><path d="M-8.55 136.51 C-6.58 141.91, -4.62 147.31, 0 160 M-8.55 136.51 C-6.05 143.37, -3.55 150.24, 0 160" stroke="#2f9e44" stroke-width="2" fill="none"></path></g><g transform="translate(540 800) rotate(0 0 80)"><path d="M8.55 136.51 C6.58 141.91, 4.62 147.31, 0 160 M8.55 136.51 C6.05 143.37, 3.55 150.24, 0 160" stroke="#2f9e44" stroke-width="2" fill="none"></path></g></g><mask></mask></g></svg>
