<svg version="1.1" xmlns="http://www.w3.org/2000/svg" viewBox="0 0 1218.9128636670603 838.0193899241392" width="3656.738591001181" height="2514.0581697724174" filter="invert(93%) hue-rotate(180deg)">
  <!-- svg-source:excalidraw -->

  <defs>
    <style class="style-fonts">
      @font-face {
        font-family: "Virgil";
        src: url("https://excalidraw.com/Virgil.woff2");
      }
      @font-face {
        font-family: "Cascadia";
        src: url("https://excalidraw.com/Cascadia.woff2");
      }
      @font-face {
        font-family: "Assistant";
        src: url("https://app.excalidraw.com//dist/excalidraw-assets/Assistant-Regular.woff2");
      }
    </style>

  </defs>
  <rect x="0" y="0" width="1218.9128636670603" height="838.0193899241392" fill="#ffffff"></rect><g stroke-linecap="round" transform="translate(23.215638397652583 686.8936115116196) rotate(0 317.7579943702549 70.5628892062598)"><path d="M32 0 C207.06 0, 382.12 0, 603.52 0 C624.85 0, 635.52 10.67, 635.52 32 C635.52 51.65, 635.52 71.29, 635.52 109.13 C635.52 130.46, 624.85 141.13, 603.52 141.13 C447.38 141.13, 291.25 141.13, 32 141.13 C10.67 141.13, 0 130.46, 0 109.13 C0 93.52, 0 77.92, 0 32 C0 10.67, 10.67 0, 32 0" stroke="none" stroke-width="0" fill="#ebfbee"></path><path d="M32 0 C193.59 0, 355.19 0, 603.52 0 M32 0 C195.6 0, 359.19 0, 603.52 0 M603.52 0 C624.85 0, 635.52 10.67, 635.52 32 M603.52 0 C624.85 0, 635.52 10.67, 635.52 32 M635.52 32 C635.52 54.33, 635.52 76.65, 635.52 109.13 M635.52 32 C635.52 57.78, 635.52 83.57, 635.52 109.13 M635.52 109.13 C635.52 130.46, 624.85 141.13, 603.52 141.13 M635.52 109.13 C635.52 130.46, 624.85 141.13, 603.52 141.13 M603.52 141.13 C429.13 141.13, 254.75 141.13, 32 141.13 M603.52 141.13 C437.75 141.13, 271.98 141.13, 32 141.13 M32 141.13 C10.67 141.13, 0 130.46, 0 109.13 M32 141.13 C10.67 141.13, 0 130.46, 0 109.13 M0 109.13 C0 90.44, 0 71.75, 0 32 M0 109.13 C0 89.53, 0 69.93, 0 32 M0 32 C0 10.67, 10.67 0, 32 0 M0 32 C0 10.67, 10.67 0, 32 0" stroke="#1e1e1e" stroke-width="2" fill="none"></path></g><g transform="translate(296.85696788143287 691.8936115116196) rotate(0 44.11666488647461 12.5)"><text x="44.11666488647461" y="17.52" font-family="Virgil, Segoe UI Emoji" font-size="20px" fill="#1e1e1e" text-anchor="middle" style="white-space: pre;" direction="ltr" dominant-baseline="alphabetic">Operator</text></g><g stroke-linecap="round" transform="translate(51.39523786240534 728.8596967973183) rotate(0 288.12951297761083 17.5)"><path d="M2.33 2.02 C2.33 2.02, 2.33 2.02, 2.33 2.02 M2.33 2.02 C2.33 2.02, 2.33 2.02, 2.33 2.02 M0.49 16.33 C3.64 12.71, 6.79 9.08, 14.27 0.48 M0.49 16.33 C4.36 11.88, 8.24 7.42, 14.27 0.48 M0.63 28.37 C9.82 17.79, 19.02 7.21, 24.9 0.45 M0.63 28.37 C8.31 19.53, 16 10.68, 24.9 0.45 M5.35 35.13 C15.88 23.02, 26.4 10.92, 35.53 0.41 M5.35 35.13 C13.07 26.24, 20.8 17.36, 35.53 0.41 M15.98 35.09 C25.35 24.32, 34.72 13.54, 46.16 0.38 M15.98 35.09 C24.65 25.12, 33.32 15.14, 46.16 0.38 M26.61 35.06 C34.14 26.4, 41.67 17.74, 56.79 0.34 M26.61 35.06 C37.3 22.77, 47.98 10.48, 56.79 0.34 M37.24 35.02 C47.94 22.72, 58.64 10.41, 67.42 0.31 M37.24 35.02 C46.67 24.18, 56.1 13.33, 67.42 0.31 M47.87 34.99 C57.2 24.26, 66.52 13.54, 78.05 0.27 M47.87 34.99 C59.71 21.38, 71.54 7.77, 78.05 0.27 M57.85 35.71 C66.5 25.76, 75.15 15.8, 88.68 0.24 M57.85 35.71 C68.79 23.12, 79.73 10.53, 88.68 0.24 M68.48 35.68 C75.05 28.12, 81.62 20.56, 99.31 0.2 M68.48 35.68 C79.4 23.11, 90.33 10.54, 99.31 0.2 M79.11 35.64 C85.77 27.98, 92.42 20.32, 109.94 0.17 M79.11 35.64 C88.2 25.18, 97.3 14.72, 109.94 0.17 M89.74 35.61 C97.62 26.54, 105.5 17.48, 120.57 0.14 M89.74 35.61 C98.74 25.25, 107.74 14.9, 120.57 0.14 M100.37 35.57 C111.02 23.31, 121.68 11.06, 131.2 0.1 M100.37 35.57 C107.46 27.42, 114.55 19.26, 131.2 0.1 M111 35.54 C118.33 27.1, 125.66 18.67, 141.83 0.07 M111 35.54 C117.88 27.62, 124.76 19.7, 141.83 0.07 M121.63 35.5 C128.18 27.97, 134.73 20.43, 152.46 0.03 M121.63 35.5 C133.17 22.22, 144.71 8.95, 152.46 0.03 M132.26 35.47 C143.64 22.38, 155.02 9.29, 163.09 0 M132.26 35.47 C139.47 27.17, 146.69 18.87, 163.09 0 M142.89 35.43 C149.58 27.73, 156.28 20.03, 173.72 -0.04 M142.89 35.43 C153.99 22.67, 165.08 9.9, 173.72 -0.04 M153.52 35.4 C164.58 22.67, 175.65 9.95, 183.7 0.68 M153.52 35.4 C164.89 22.32, 176.27 9.23, 183.7 0.68 M164.15 35.37 C173.76 24.31, 183.37 13.26, 194.33 0.65 M164.15 35.37 C174.27 23.72, 184.4 12.07, 194.33 0.65 M174.78 35.33 C185.5 23, 196.22 10.66, 204.96 0.61 M174.78 35.33 C186 22.42, 197.23 9.5, 204.96 0.61 M185.41 35.3 C195.44 23.76, 205.47 12.22, 215.59 0.58 M185.41 35.3 C193.47 26.02, 201.54 16.74, 215.59 0.58 M196.04 35.26 C207.14 22.49, 218.24 9.72, 226.22 0.55 M196.04 35.26 C205.29 24.62, 214.54 13.98, 226.22 0.55 M206.67 35.23 C213.71 27.13, 220.75 19.03, 236.85 0.51 M206.67 35.23 C213.86 26.95, 221.06 18.67, 236.85 0.51 M217.3 35.19 C224.68 26.7, 232.07 18.2, 247.48 0.48 M217.3 35.19 C227.4 23.57, 237.5 11.95, 247.48 0.48 M227.93 35.16 C235.57 26.37, 243.2 17.59, 258.11 0.44 M227.93 35.16 C238.48 23.03, 249.02 10.89, 258.11 0.44 M238.56 35.12 C248.65 23.51, 258.75 11.9, 268.74 0.41 M238.56 35.12 C249.98 21.99, 261.39 8.86, 268.74 0.41 M249.19 35.09 C260.7 21.85, 272.22 8.6, 279.37 0.37 M249.19 35.09 C255.77 27.52, 262.35 19.95, 279.37 0.37 M259.82 35.06 C271.69 21.4, 283.55 7.75, 290 0.34 M259.82 35.06 C266.64 27.21, 273.45 19.37, 290 0.34 M270.45 35.02 C278.48 25.78, 286.51 16.54, 300.63 0.3 M270.45 35.02 C278.87 25.34, 287.29 15.65, 300.63 0.3 M281.08 34.99 C289.68 25.1, 298.27 15.21, 311.26 0.27 M281.08 34.99 C288.13 26.88, 295.17 18.77, 311.26 0.27 M291.05 35.71 C300.69 24.62, 310.32 13.54, 321.89 0.24 M291.05 35.71 C299.82 25.62, 308.59 15.54, 321.89 0.24 M301.68 35.67 C310.36 25.69, 319.03 15.72, 332.52 0.2 M301.68 35.67 C308.6 27.72, 315.51 19.77, 332.52 0.2 M312.31 35.64 C324.14 22.03, 335.97 8.42, 343.15 0.17 M312.31 35.64 C318.58 28.43, 324.85 21.22, 343.15 0.17 M322.94 35.6 C334.11 22.76, 345.27 9.92, 353.78 0.13 M322.94 35.6 C334.92 21.83, 346.89 8.06, 353.78 0.13 M333.57 35.57 C342.84 24.91, 352.11 14.24, 364.41 0.1 M333.57 35.57 C343.51 24.14, 353.44 12.71, 364.41 0.1 M344.2 35.53 C353.91 24.37, 363.61 13.21, 375.04 0.06 M344.2 35.53 C356.02 21.94, 367.84 8.34, 375.04 0.06 M354.83 35.5 C365.39 23.36, 375.94 11.22, 385.67 0.03 M354.83 35.5 C365.46 23.27, 376.1 11.04, 385.67 0.03 M365.46 35.46 C372.69 27.15, 379.91 18.84, 396.3 -0.01 M365.46 35.46 C372.68 27.17, 379.89 18.87, 396.3 -0.01 M376.09 35.43 C386.74 23.18, 397.39 10.93, 406.93 -0.04 M376.09 35.43 C385.09 25.08, 394.08 14.74, 406.93 -0.04 M386.72 35.4 C393.48 27.62, 400.25 19.84, 416.9 0.68 M386.72 35.4 C393.72 27.34, 400.73 19.29, 416.9 0.68 M397.35 35.36 C403.51 28.28, 409.67 21.19, 427.53 0.64 M397.35 35.36 C403.42 28.38, 409.48 21.41, 427.53 0.64 M407.98 35.33 C416.88 25.1, 425.77 14.87, 438.16 0.61 M407.98 35.33 C415.12 27.11, 422.26 18.9, 438.16 0.61 M418.61 35.29 C429.81 22.41, 441.01 9.53, 448.79 0.58 M418.61 35.29 C425.49 27.39, 432.36 19.48, 448.79 0.58 M429.24 35.26 C437.24 26.06, 445.24 16.86, 459.42 0.54 M429.24 35.26 C440.53 22.28, 451.81 9.3, 459.42 0.54 M439.87 35.22 C450.62 22.86, 461.36 10.5, 470.05 0.51 M439.87 35.22 C450.27 23.27, 460.66 11.32, 470.05 0.51 M450.5 35.19 C458.39 26.11, 466.28 17.04, 480.68 0.47 M450.5 35.19 C460.69 23.47, 470.87 11.76, 480.68 0.47 M461.13 35.15 C467.99 27.27, 474.84 19.39, 491.31 0.44 M461.13 35.15 C468.39 26.81, 475.64 18.47, 491.31 0.44 M471.76 35.12 C478.35 27.54, 484.94 19.97, 501.94 0.4 M471.76 35.12 C480.45 25.13, 489.13 15.14, 501.94 0.4 M482.39 35.09 C491.75 24.33, 501.1 13.57, 512.57 0.37 M482.39 35.09 C489.1 27.37, 495.81 19.65, 512.57 0.37 M493.02 35.05 C504.42 21.94, 515.82 8.83, 523.2 0.33 M493.02 35.05 C503.67 22.81, 514.32 10.56, 523.2 0.33 M503.65 35.02 C512.35 25.02, 521.04 15.02, 533.83 0.3 M503.65 35.02 C513.14 24.11, 522.62 13.2, 533.83 0.3 M514.28 34.98 C526.04 21.46, 537.79 7.94, 544.46 0.27 M514.28 34.98 C524.16 23.62, 534.04 12.25, 544.46 0.27 M524.26 35.7 C533.59 24.96, 542.93 14.23, 555.09 0.23 M524.26 35.7 C535.28 23.03, 546.29 10.35, 555.09 0.23 M534.89 35.67 C541.41 28.17, 547.93 20.66, 565.72 0.2 M534.89 35.67 C546.41 22.41, 557.94 9.16, 565.72 0.2 M545.52 35.63 C552.83 27.23, 560.13 18.82, 574.39 2.43 M545.52 35.63 C554.46 25.35, 563.4 15.07, 574.39 2.43 M556.15 35.6 C560.41 30.7, 564.66 25.81, 576.49 12.2 M556.15 35.6 C562.68 28.08, 569.22 20.57, 576.49 12.2 M566.78 35.56 C569.7 32.21, 572.61 28.86, 576.62 24.24 M566.78 35.56 C570.19 31.64, 573.61 27.71, 576.62 24.24" stroke="#ebfbee" stroke-width="1" fill="none"></path><path d="M8.75 0 C123.19 0, 237.63 0, 567.51 0 M8.75 0 C163.82 0, 318.88 0, 567.51 0 M567.51 0 C573.34 0, 576.26 2.92, 576.26 8.75 M567.51 0 C573.34 0, 576.26 2.92, 576.26 8.75 M576.26 8.75 C576.26 13.07, 576.26 17.4, 576.26 26.25 M576.26 8.75 C576.26 14.76, 576.26 20.78, 576.26 26.25 M576.26 26.25 C576.26 32.08, 573.34 35, 567.51 35 M576.26 26.25 C576.26 32.08, 573.34 35, 567.51 35 M567.51 35 C422.07 35, 276.64 35, 8.75 35 M567.51 35 C440.62 35, 313.73 35, 8.75 35 M8.75 35 C2.92 35, 0 32.08, 0 26.25 M8.75 35 C2.92 35, 0 32.08, 0 26.25 M0 26.25 C0 19.4, 0 12.56, 0 8.75 M0 26.25 C0 21.05, 0 15.84, 0 8.75 M0 8.75 C0 2.92, 2.92 0, 8.75 0 M0 8.75 C0 2.92, 2.92 0, 8.75 0" stroke="#2f9e44" stroke-width="2" fill="none"></path></g><g transform="translate(241.87474931413726 733.8596967973183) rotate(0 97.6500015258789 12.5)"><text x="97.6500015258789" y="17.52" font-family="Virgil, Segoe UI Emoji" font-size="20px" fill="#2f9e44" text-anchor="middle" style="white-space: pre;" direction="ltr" dominant-baseline="alphabetic">Ditto AVS Instance</text></g><g stroke-linecap="round" transform="translate(16.077480360427217 677.1502716830721) rotate(0 317.7579943702549 70.5628892062598)"><path d="M32 0 C228.24 0, 424.47 0, 603.52 0 C624.85 0, 635.52 10.67, 635.52 32 C635.52 56.81, 635.52 81.63, 635.52 109.13 C635.52 130.46, 624.85 141.13, 603.52 141.13 C388.13 141.13, 172.74 141.13, 32 141.13 C10.67 141.13, 0 130.46, 0 109.13 C0 92.03, 0 74.94, 0 32 C0 10.67, 10.67 0, 32 0" stroke="none" stroke-width="0" fill="#ebfbee"></path><path d="M32 0 C210.23 0, 388.46 0, 603.52 0 M32 0 C158.3 0, 284.6 0, 603.52 0 M603.52 0 C624.85 0, 635.52 10.67, 635.52 32 M603.52 0 C624.85 0, 635.52 10.67, 635.52 32 M635.52 32 C635.52 59.65, 635.52 87.3, 635.52 109.13 M635.52 32 C635.52 52.75, 635.52 73.5, 635.52 109.13 M635.52 109.13 C635.52 130.46, 624.85 141.13, 603.52 141.13 M635.52 109.13 C635.52 130.46, 624.85 141.13, 603.52 141.13 M603.52 141.13 C425.23 141.13, 246.94 141.13, 32 141.13 M603.52 141.13 C381.32 141.13, 159.13 141.13, 32 141.13 M32 141.13 C10.67 141.13, 0 130.46, 0 109.13 M32 141.13 C10.67 141.13, 0 130.46, 0 109.13 M0 109.13 C0 80.92, 0 52.72, 0 32 M0 109.13 C0 93.22, 0 77.31, 0 32 M0 32 C0 10.67, 10.67 0, 32 0 M0 32 C0 10.67, 10.67 0, 32 0" stroke="#1e1e1e" stroke-width="2" fill="none"></path></g><g transform="translate(289.7188098442075 682.1502716830721) rotate(0 44.11666488647461 12.5)"><text x="44.11666488647461" y="17.52" font-family="Virgil, Segoe UI Emoji" font-size="20px" fill="#1e1e1e" text-anchor="middle" style="white-space: pre;" direction="ltr" dominant-baseline="alphabetic">Operator</text></g><g stroke-linecap="round" transform="translate(44.25707982517997 719.1163569687708) rotate(0 288.12951297761083 17.5)"><path d="M2.33 2.02 C2.33 2.02, 2.33 2.02, 2.33 2.02 M2.33 2.02 C2.33 2.02, 2.33 2.02, 2.33 2.02 M0.49 16.33 C5.71 10.33, 10.93 4.32, 14.27 0.48 M0.49 16.33 C3.28 13.12, 6.07 9.92, 14.27 0.48 M0.63 28.37 C8.66 19.13, 16.7 9.88, 24.9 0.45 M0.63 28.37 C10.14 17.43, 19.65 6.49, 24.9 0.45 M5.35 35.13 C16.18 22.68, 27 10.23, 35.53 0.41 M5.35 35.13 C12.58 26.82, 19.8 18.51, 35.53 0.41 M15.98 35.09 C27.99 21.29, 39.99 7.48, 46.16 0.38 M15.98 35.09 C23.57 26.37, 31.15 17.64, 46.16 0.38 M26.61 35.06 C36.71 23.44, 46.81 11.82, 56.79 0.34 M26.61 35.06 C37.2 22.89, 47.78 10.71, 56.79 0.34 M37.24 35.02 C49.22 21.24, 61.21 7.46, 67.42 0.31 M37.24 35.02 C44.38 26.81, 51.52 18.6, 67.42 0.31 M47.87 34.99 C55.24 26.51, 62.61 18.04, 78.05 0.27 M47.87 34.99 C55.23 26.53, 62.58 18.07, 78.05 0.27 M57.85 35.71 C68.88 23.02, 79.91 10.33, 88.68 0.24 M57.85 35.71 C67.14 25.03, 76.42 14.34, 88.68 0.24 M68.48 35.68 C78.73 23.88, 88.98 12.09, 99.31 0.2 M68.48 35.68 C80.59 21.74, 92.71 7.8, 99.31 0.2 M79.11 35.64 C87.33 26.19, 95.54 16.73, 109.94 0.17 M79.11 35.64 C88.85 24.43, 98.6 13.22, 109.94 0.17 M89.74 35.61 C97.52 26.65, 105.31 17.69, 120.57 0.14 M89.74 35.61 C100.24 23.53, 110.74 11.45, 120.57 0.14 M100.37 35.57 C111.71 22.53, 123.05 9.48, 131.2 0.1 M100.37 35.57 C111.74 22.48, 123.12 9.4, 131.2 0.1 M111 35.54 C122.26 22.58, 133.52 9.63, 141.83 0.07 M111 35.54 C123.19 21.51, 135.38 7.48, 141.83 0.07 M121.63 35.5 C129.76 26.14, 137.9 16.78, 152.46 0.03 M121.63 35.5 C129.8 26.1, 137.98 16.69, 152.46 0.03 M132.26 35.47 C139.64 26.98, 147.02 18.49, 163.09 0 M132.26 35.47 C142.55 23.63, 152.85 11.78, 163.09 0 M142.89 35.43 C149.51 27.82, 156.13 20.2, 173.72 -0.04 M142.89 35.43 C149.89 27.38, 156.89 19.33, 173.72 -0.04 M153.52 35.4 C164.12 23.2, 174.72 11.01, 183.7 0.68 M153.52 35.4 C162.55 25.01, 171.58 14.62, 183.7 0.68 M164.15 35.37 C171.35 27.09, 178.54 18.81, 194.33 0.65 M164.15 35.37 C176.04 21.69, 187.93 8.01, 194.33 0.65 M174.78 35.33 C186.41 21.95, 198.04 8.57, 204.96 0.61 M174.78 35.33 C183.9 24.84, 193.02 14.34, 204.96 0.61 M185.41 35.3 C191.77 27.98, 198.12 20.67, 215.59 0.58 M185.41 35.3 C195.15 24.09, 204.89 12.89, 215.59 0.58 M196.04 35.26 C206.11 23.68, 216.18 12.09, 226.22 0.55 M196.04 35.26 C205.72 24.13, 215.39 13, 226.22 0.55 M206.67 35.23 C217.68 22.56, 228.69 9.9, 236.85 0.51 M206.67 35.23 C215.34 25.25, 224.01 15.28, 236.85 0.51 M217.3 35.19 C229.25 21.44, 241.21 7.68, 247.48 0.48 M217.3 35.19 C229.35 21.33, 241.41 7.46, 247.48 0.48 M227.93 35.16 C239.77 21.54, 251.61 7.92, 258.11 0.44 M227.93 35.16 C239.36 22.01, 250.79 8.86, 258.11 0.44 M238.56 35.12 C247.03 25.38, 255.5 15.64, 268.74 0.41 M238.56 35.12 C249.15 22.94, 259.73 10.76, 268.74 0.41 M249.19 35.09 C259.52 23.21, 269.85 11.33, 279.37 0.37 M249.19 35.09 C255.38 27.97, 261.58 20.84, 279.37 0.37 M259.82 35.06 C268.95 24.55, 278.08 14.05, 290 0.34 M259.82 35.06 C267.49 26.23, 275.16 17.41, 290 0.34 M270.45 35.02 C280.15 23.86, 289.86 12.69, 300.63 0.3 M270.45 35.02 C282.29 21.4, 294.13 7.78, 300.63 0.3 M281.08 34.99 C289.69 25.08, 298.3 15.18, 311.26 0.27 M281.08 34.99 C291.82 22.63, 302.57 10.27, 311.26 0.27 M291.05 35.71 C303.24 21.69, 315.42 7.67, 321.89 0.24 M291.05 35.71 C299.77 25.68, 308.48 15.66, 321.89 0.24 M301.68 35.67 C309.7 26.45, 317.72 17.23, 332.52 0.2 M301.68 35.67 C313.09 22.54, 324.51 9.42, 332.52 0.2 M312.31 35.64 C321.12 25.51, 329.92 15.38, 343.15 0.17 M312.31 35.64 C319.59 27.26, 326.87 18.89, 343.15 0.17 M322.94 35.6 C334.22 22.63, 345.5 9.66, 353.78 0.13 M322.94 35.6 C334.58 22.22, 346.22 8.83, 353.78 0.13 M333.57 35.57 C341.99 25.88, 350.41 16.2, 364.41 0.1 M333.57 35.57 C343.73 23.88, 353.9 12.19, 364.41 0.1 M344.2 35.53 C354.97 23.14, 365.74 10.75, 375.04 0.06 M344.2 35.53 C354.25 23.97, 364.31 12.41, 375.04 0.06 M354.83 35.5 C363.96 25, 373.09 14.5, 385.67 0.03 M354.83 35.5 C362.77 26.37, 370.7 17.24, 385.67 0.03 M365.46 35.46 C373.64 26.06, 381.82 16.65, 396.3 -0.01 M365.46 35.46 C375.67 23.72, 385.89 11.97, 396.3 -0.01 M376.09 35.43 C383.81 26.55, 391.53 17.67, 406.93 -0.04 M376.09 35.43 C383.21 27.24, 390.33 19.05, 406.93 -0.04 M386.72 35.4 C398.07 22.34, 409.42 9.28, 416.9 0.68 M386.72 35.4 C398.05 22.36, 409.39 9.33, 416.9 0.68 M397.35 35.36 C406.1 25.3, 414.85 15.24, 427.53 0.64 M397.35 35.36 C405.76 25.69, 414.18 16.01, 427.53 0.64 M407.98 35.33 C415.59 26.58, 423.19 17.83, 438.16 0.61 M407.98 35.33 C414.28 28.09, 420.57 20.85, 438.16 0.61 M418.61 35.29 C428.46 23.96, 438.31 12.64, 448.79 0.58 M418.61 35.29 C429.07 23.26, 439.53 11.23, 448.79 0.58 M429.24 35.26 C437.42 25.85, 445.6 16.44, 459.42 0.54 M429.24 35.26 C436.71 26.67, 444.17 18.08, 459.42 0.54 M439.87 35.22 C449.81 23.8, 459.74 12.38, 470.05 0.51 M439.87 35.22 C451.87 21.42, 463.87 7.62, 470.05 0.51 M450.5 35.19 C460.13 24.11, 469.76 13.04, 480.68 0.47 M450.5 35.19 C458.83 25.61, 467.15 16.04, 480.68 0.47 M461.13 35.15 C467.94 27.33, 474.74 19.5, 491.31 0.44 M461.13 35.15 C470.54 24.33, 479.95 13.51, 491.31 0.44 M471.76 35.12 C480.51 25.06, 489.25 15, 501.94 0.4 M471.76 35.12 C482.18 23.13, 492.6 11.15, 501.94 0.4 M482.39 35.09 C488.45 28.12, 494.5 21.16, 512.57 0.37 M482.39 35.09 C494.05 21.67, 505.72 8.26, 512.57 0.37 M493.02 35.05 C504.63 21.7, 516.24 8.35, 523.2 0.33 M493.02 35.05 C501.3 25.53, 509.57 16.02, 523.2 0.33 M503.65 35.02 C515.64 21.23, 527.63 7.44, 533.83 0.3 M503.65 35.02 C510.78 26.82, 517.91 18.62, 533.83 0.3 M514.28 34.98 C520.71 27.59, 527.14 20.2, 544.46 0.27 M514.28 34.98 C524.79 22.9, 535.29 10.82, 544.46 0.27 M524.26 35.7 C530.93 28.03, 537.59 20.37, 555.09 0.23 M524.26 35.7 C533.28 25.32, 542.3 14.94, 555.09 0.23 M534.89 35.67 C543.89 25.32, 552.89 14.96, 565.72 0.2 M534.89 35.67 C541.66 27.88, 548.44 20.08, 565.72 0.2 M545.52 35.63 C551.75 28.46, 557.99 21.29, 574.39 2.43 M545.52 35.63 C554.32 25.51, 563.12 15.39, 574.39 2.43 M556.15 35.6 C563.19 27.5, 570.23 19.4, 576.49 12.2 M556.15 35.6 C560.4 30.71, 564.66 25.81, 576.49 12.2 M566.78 35.56 C568.87 33.15, 570.97 30.74, 576.62 24.24 M566.78 35.56 C569.13 32.86, 571.48 30.16, 576.62 24.24" stroke="#ebfbee" stroke-width="1" fill="none"></path><path d="M8.75 0 C213.18 0, 417.6 0, 567.51 0 M8.75 0 C159.13 0, 309.51 0, 567.51 0 M567.51 0 C573.34 0, 576.26 2.92, 576.26 8.75 M567.51 0 C573.34 0, 576.26 2.92, 576.26 8.75 M576.26 8.75 C576.26 12.97, 576.26 17.19, 576.26 26.25 M576.26 8.75 C576.26 14.35, 576.26 19.94, 576.26 26.25 M576.26 26.25 C576.26 32.08, 573.34 35, 567.51 35 M576.26 26.25 C576.26 32.08, 573.34 35, 567.51 35 M567.51 35 C451.24 35, 334.97 35, 8.75 35 M567.51 35 C362.65 35, 157.8 35, 8.75 35 M8.75 35 C2.92 35, 0 32.08, 0 26.25 M8.75 35 C2.92 35, 0 32.08, 0 26.25 M0 26.25 C0 20.67, 0 15.08, 0 8.75 M0 26.25 C0 21.36, 0 16.47, 0 8.75 M0 8.75 C0 2.92, 2.92 0, 8.75 0 M0 8.75 C0 2.92, 2.92 0, 8.75 0" stroke="#2f9e44" stroke-width="2" fill="none"></path></g><g transform="translate(234.7365912769119 724.1163569687708) rotate(0 97.6500015258789 12.5)"><text x="97.6500015258789" y="17.52" font-family="Virgil, Segoe UI Emoji" font-size="20px" fill="#2f9e44" text-anchor="middle" style="white-space: pre;" direction="ltr" dominant-baseline="alphabetic">Ditto AVS Instance</text></g><g mask="url(#mask-G0KSYhwutH2ca_N9J2L0_)" stroke-linecap="round"><g transform="translate(621.685953929793 771.2065440270505) rotate(0 181.89328129121077 -87.52159746139148)"><path d="M-0.89 -0.37 C39.13 -6.54, 179.81 -8.22, 240.56 -37.45 C301.32 -66.67, 343.03 -152.91, 363.66 -175.74 M0.85 -1.61 C40.67 -7.53, 179.3 -6.97, 239.63 -35.84 C299.96 -64.7, 341.95 -151.32, 362.83 -174.79" stroke="#1e1e1e" stroke-width="1" fill="none"></path></g><g transform="translate(621.685953929793 771.2065440270505) rotate(0 181.89328129121077 -87.52159746139148)"><path d="M356.37 -150.64 C358.01 -158.69, 361.03 -167.07, 362.83 -174.79 M356.37 -150.64 C357.29 -156.26, 359.03 -162, 362.83 -174.79" stroke="#1e1e1e" stroke-width="1" fill="none"></path></g><g transform="translate(621.685953929793 771.2065440270505) rotate(0 181.89328129121077 -87.52159746139148)"><path d="M342.36 -160.44 C348.68 -165.09, 356.42 -170.16, 362.83 -174.79 M342.36 -160.44 C346.71 -163.76, 351.83 -167.13, 362.83 -174.79" stroke="#1e1e1e" stroke-width="1" fill="none"></path></g></g><mask id="mask-G0KSYhwutH2ca_N9J2L0_"><rect x="0" y="0" fill="#fff" width="1085.4725165122145" height="1046.2497389498335"></rect><rect x="828.6964252765492" y="721.1242272450211" fill="#000" width="67.06666564941406" height="25" opacity="1"></rect></mask><g transform="translate(828.6964252765483 721.1242272450211) rotate(0 -25.623965047668662 -37.974925460579016)"><text x="33.53333282470703" y="17.52" font-family="Virgil, Segoe UI Emoji" font-size="20px" fill="#1e1e1e" text-anchor="middle" style="white-space: pre;" direction="ltr" dominant-baseline="alphabetic">verdict</text></g><g mask="url(#mask-YekFEHVmf88IGy0N0Zm99)" stroke-linecap="round"><g transform="translate(876.5488146439093 577.8718635030268) rotate(0 -115.0164129516993 46.18115702293994)"><path d="M-0.13 -0.7 C-27.31 4.48, -124.64 15.64, -163.06 31.2 C-201.48 46.76, -219.44 82.4, -230.67 92.66 M-1.65 1.55 C-28.94 6.36, -125.36 13.95, -163.71 29.38 C-202.07 44.81, -220.65 83.36, -231.77 94.14" stroke="#1e1e1e" stroke-width="1" fill="none"></path></g><g transform="translate(876.5488146439093 577.8718635030268) rotate(0 -115.0164129516993 46.18115702293994)"><path d="M-224.05 70.36 C-227.52 78.46, -227.71 83.65, -231.77 94.14 M-224.05 70.36 C-226.06 78.86, -229.59 86.29, -231.77 94.14" stroke="#1e1e1e" stroke-width="1" fill="none"></path></g><g transform="translate(876.5488146439093 577.8718635030268) rotate(0 -115.0164129516993 46.18115702293994)"><path d="M-210.57 80.88 C-218.12 85.8, -222.38 87.8, -231.77 94.14 M-210.57 80.88 C-216.93 86.01, -224.84 90.02, -231.77 94.14" stroke="#1e1e1e" stroke-width="1" fill="none"></path></g></g><mask id="mask-YekFEHVmf88IGy0N0Zm99"><rect x="0" y="0" fill="#fff" width="1206.5816405473079" height="770.2341775489067"></rect><rect x="672.7442509942348" y="583.4854498853224" fill="#000" width="80.36666870117188" height="50" opacity="1"></rect></mask><g transform="translate(672.7442509942348 583.4854498853224) rotate(0 87.8577802689847 41.10659283670998)"><text x="40.18333435058594" y="17.52" font-family="Virgil, Segoe UI Emoji" font-size="20px" fill="#1e1e1e" text-anchor="middle" style="white-space: pre;" direction="ltr" dominant-baseline="alphabetic">validate</text><text x="40.18333435058594" y="42.519999999999996" font-family="Virgil, Segoe UI Emoji" font-size="20px" fill="#1e1e1e" text-anchor="middle" style="white-space: pre;" direction="ltr" dominant-baseline="alphabetic">task</text></g><g mask="url(#mask-2855XCdvq3HM6hINvitEo)" stroke-linecap="round"><g transform="translate(1027.7658562775732 507.6082811066706) rotate(0 -0.08593196492620336 -61.84653284905778)"><path d="M0 0 C-0.03 -20.62, -0.14 -103.08, -0.17 -123.69 M0 0 C-0.03 -20.62, -0.14 -103.08, -0.17 -123.69" stroke="#1e1e1e" stroke-width="1" fill="none"></path></g><g transform="translate(1027.7658562775732 507.6082811066706) rotate(0 -0.08593196492620336 -61.84653284905778)"><path d="M8.41 -100.21 C5.44 -108.35, 2.46 -116.49, -0.17 -123.69 M8.41 -100.21 C5.2 -108.99, 1.99 -117.78, -0.17 -123.69" stroke="#1e1e1e" stroke-width="1" fill="none"></path></g><g transform="translate(1027.7658562775732 507.6082811066706) rotate(0 -0.08593196492620336 -61.84653284905778)"><path d="M-8.69 -100.19 C-5.74 -108.34, -2.78 -116.49, -0.17 -123.69 M-8.69 -100.19 C-5.5 -108.98, -2.32 -117.77, -0.17 -123.69" stroke="#1e1e1e" stroke-width="1" fill="none"></path></g></g><mask id="mask-2855XCdvq3HM6hINvitEo"><rect x="0" y="0" fill="#fff" width="1127.9377202074256" height="731.3013468047861"></rect><rect x="958.7299273644057" y="415.7617482576129" fill="#000" width="137.89999389648438" height="60" opacity="1"></rect></mask><g transform="translate(958.7299273644048 415.7617482576129) rotate(0 68.94999694824219 29.999999999999886)"><text x="68.94999694824219" y="14.016" font-family="Virgil, Segoe UI Emoji" font-size="16px" fill="#1e1e1e" text-anchor="middle" style="white-space: pre;" direction="ltr" dominant-baseline="alphabetic">send aggregated </text><text x="68.94999694824219" y="34.016" font-family="Virgil, Segoe UI Emoji" font-size="16px" fill="#1e1e1e" text-anchor="middle" style="white-space: pre;" direction="ltr" dominant-baseline="alphabetic">verdicts from </text><text x="68.94999694824219" y="54.016" font-family="Virgil, Segoe UI Emoji" font-size="16px" fill="#1e1e1e" text-anchor="middle" style="white-space: pre;" direction="ltr" dominant-baseline="alphabetic">operators</text></g><g mask="url(#mask-S8ADtGZS9JqBzQrGFbYtu)" stroke-linecap="round"><g transform="translate(1027.5098853118761 205.4189426554119) rotate(0 0 -54.778907264080544)"><path d="M0.7 0.89 C0.69 -17.35, -0.28 -90.44, -0.52 -109.03 M-0.39 0.31 C-0.57 -18.33, -2.11 -92.51, -1.74 -110.88" stroke="#1e1e1e" stroke-width="1" fill="none"></path></g><g transform="translate(1027.5098853118761 205.4189426554119) rotate(0 0 -54.778907264080544)"><path d="M6.89 -87.42 C6.01 -94.44, 3.11 -100.96, -1.74 -110.88 M6.89 -87.42 C5.95 -92.16, 3.5 -97.07, -1.74 -110.88" stroke="#1e1e1e" stroke-width="1" fill="none"></path></g><g transform="translate(1027.5098853118761 205.4189426554119) rotate(0 0 -54.778907264080544)"><path d="M-10.21 -87.36 C-6.57 -94.5, -4.93 -101.04, -1.74 -110.88 M-10.21 -87.36 C-7.57 -92.06, -6.44 -96.98, -1.74 -110.88" stroke="#1e1e1e" stroke-width="1" fill="none"></path></g></g><mask id="mask-S8ADtGZS9JqBzQrGFbYtu"><rect x="0" y="0" fill="#fff" width="1127.5098853118761" height="414.976757183573"></rect><rect x="965.5598845489376" y="130.64003539133137" fill="#000" width="123.9000015258789" height="40" opacity="1"></rect></mask><g transform="translate(965.5598845489376 130.64003539133137) rotate(0 61.402765394391736 19.78255867315454)"><text x="61.95000076293945" y="14.016" font-family="Virgil, Segoe UI Emoji" font-size="16px" fill="#1e1e1e" text-anchor="middle" style="white-space: pre;" direction="ltr" dominant-baseline="alphabetic">slash or reward</text><text x="61.95000076293945" y="34.016" font-family="Virgil, Segoe UI Emoji" font-size="16px" fill="#1e1e1e" text-anchor="middle" style="white-space: pre;" direction="ltr" dominant-baseline="alphabetic">operators</text></g><g stroke-linecap="round" transform="translate(13.811148433313974 188.6560668965326) rotate(0 143.20425466776715 40.01306135271102)"><path d="M20.01 0 C81.77 0.07, 146.01 2.35, 266.4 0 M20.01 0 C99.33 0.09, 177.38 -0.21, 266.4 0 M266.4 0 C280.92 -0.93, 285.61 5.1, 286.41 20.01 M266.4 0 C281.06 -0.23, 286.68 8.46, 286.41 20.01 M286.41 20.01 C285.5 33.22, 287.89 40.66, 286.41 60.02 M286.41 20.01 C286.75 36.22, 285.52 51.5, 286.41 60.02 M286.41 60.02 C285.6 75.26, 281.56 79.48, 266.4 80.03 M286.41 60.02 C285.7 72.3, 281.25 78.19, 266.4 80.03 M266.4 80.03 C196.21 81.83, 127.04 81.44, 20.01 80.03 M266.4 80.03 C190.97 80.14, 116.16 79.88, 20.01 80.03 M20.01 80.03 C7.75 79.27, -1.04 75.34, 0 60.02 M20.01 80.03 C4.68 80.64, 1 71.71, 0 60.02 M0 60.02 C1.95 44.02, -1.63 29.9, 0 20.01 M0 60.02 C-0.44 45.04, 0.02 31.87, 0 20.01 M0 20.01 C-0.95 6.29, 8.24 1.53, 20.01 0 M0 20.01 C-0.49 6.19, 8.44 0.37, 20.01 0" stroke="#1e1e1e" stroke-width="2" fill="none"></path></g><g transform="translate(105.84873516284824 216.1691282492436) rotate(0 51.16666793823242 12.5)"><text x="51.16666793823242" y="17.52" font-family="Virgil, Segoe UI Emoji" font-size="20px" fill="#1e1e1e" text-anchor="middle" style="white-space: pre;" direction="ltr" dominant-baseline="alphabetic">EigenLayer</text></g><g stroke-linecap="round" transform="translate(113.81114843331397 48.65606689653259) rotate(0 39.7622730084222 17.5)"><path d="M8.75 0 C23.51 -0.31, 37.89 1.15, 70.77 0 M8.75 0 C31.65 -0.61, 52.97 -0.92, 70.77 0 M70.77 0 C77.76 -0.2, 79.76 4.47, 79.52 8.75 M70.77 0 C76.19 -1.68, 77.41 2.21, 79.52 8.75 M79.52 8.75 C81.28 14.35, 80.85 23.76, 79.52 26.25 M79.52 8.75 C79.07 15.82, 80.22 20.99, 79.52 26.25 M79.52 26.25 C78.9 31.17, 77.92 33.41, 70.77 35 M79.52 26.25 C79.06 32.02, 77.05 33.2, 70.77 35 M70.77 35 C46.91 37.22, 22.43 34.7, 8.75 35 M70.77 35 C48.71 34.82, 25.05 36.19, 8.75 35 M8.75 35 C1.18 35.53, 0.87 30.65, 0 26.25 M8.75 35 C4.89 33.96, -1.71 34.11, 0 26.25 M0 26.25 C1.26 20.25, 0.54 15.47, 0 8.75 M0 26.25 C-0.37 21.63, 0.74 18.02, 0 8.75 M0 8.75 C-0.42 2.5, 4.45 0.32, 8.75 0 M0 8.75 C1.81 0.67, 1.92 -2.13, 8.75 0" stroke="#1e1e1e" stroke-width="2" fill="none"></path></g><g transform="translate(120.54008861702914 53.65606689653259) rotate(0 33.03333282470703 12.5)"><text x="33.03333282470703" y="17.52" font-family="Virgil, Segoe UI Emoji" font-size="20px" fill="#1e1e1e" text-anchor="middle" style="white-space: pre;" direction="ltr" dominant-baseline="alphabetic">Staker</text></g><g mask="url(#mask-5SMbvuQ9bv5oX2Vbc81XF)" stroke-linecap="round"><g transform="translate(153.81114843331397 88.6560668965326) rotate(0 0 49.5)"><path d="M0.95 0.72 C0.95 17.22, 0.1 82.99, 0.06 99.27 M-0.01 0.05 C-0.17 16.15, -0.91 80.72, -0.85 97.29" stroke="#1e1e1e" stroke-width="1" fill="none"></path></g><g transform="translate(153.81114843331397 88.6560668965326) rotate(0 0 49.5)"><path d="M-9.28 73.76 C-5.46 81, -3.62 89.29, -0.85 97.29 M-9.28 73.76 C-6.67 79.69, -4.99 86.52, -0.85 97.29" stroke="#1e1e1e" stroke-width="1" fill="none"></path></g><g transform="translate(153.81114843331397 88.6560668965326) rotate(0 0 49.5)"><path d="M7.82 73.85 C6.4 81.2, 3 89.46, -0.85 97.29 M7.82 73.85 C6.1 79.62, 3.45 86.43, -0.85 97.29" stroke="#1e1e1e" stroke-width="1" fill="none"></path></g></g><mask id="mask-5SMbvuQ9bv5oX2Vbc81XF"><rect x="0" y="0" fill="#fff" width="253.81114843331397" height="287.6560668965326"></rect><rect x="66.02781560860694" y="118.1560668965326" fill="#000" width="175.56666564941406" height="40" opacity="1"></rect></mask><g transform="translate(66.02781560860694 118.1560668965326) rotate(0 87.83137586357952 20.15995662255216)"><text x="87.78333282470703" y="14.016" font-family="Virgil, Segoe UI Emoji" font-size="16px" fill="#1e1e1e" text-anchor="middle" style="white-space: pre;" direction="ltr" dominant-baseline="alphabetic">deposits stake on the</text><text x="87.78333282470703" y="34.016" font-family="Virgil, Segoe UI Emoji" font-size="16px" fill="#1e1e1e" text-anchor="middle" style="white-space: pre;" direction="ltr" dominant-baseline="alphabetic">ditto operator</text></g><g mask="url(#mask-CEFOU16vc5GwD59dfpR1U)" stroke-linecap="round"><g transform="translate(154.06767910966937 269.6821896019544) rotate(0 59.18840157903969 78.20837555260005)"><path d="M0.71 -0.56 C3.91 12.4, -0.46 51.89, 19.27 78.03 C38.99 104.18, 102.53 143.08, 119.07 156.3 M-0.38 1.76 C2.61 14.82, -1.77 53.11, 18.07 79.08 C37.91 105.04, 101.87 144.85, 118.66 157.55" stroke="#1e1e1e" stroke-width="1" fill="none"></path></g><g transform="translate(154.06767910966937 269.6821896019544) rotate(0 59.18840157903969 78.20837555260005)"><path d="M94.49 151.17 C100.95 152.18, 107.69 156.07, 118.66 157.55 M94.49 151.17 C101.33 152.1, 107.6 154.37, 118.66 157.55" stroke="#1e1e1e" stroke-width="1" fill="none"></path></g><g transform="translate(154.06767910966937 269.6821896019544) rotate(0 59.18840157903969 78.20837555260005)"><path d="M104.25 137.12 C107.76 142.48, 111.53 150.66, 118.66 157.55 M104.25 137.12 C108.28 142.21, 111.72 148.55, 118.66 157.55" stroke="#1e1e1e" stroke-width="1" fill="none"></path></g></g><mask id="mask-CEFOU16vc5GwD59dfpR1U"><rect x="0" y="0" fill="#fff" width="372.44448226774875" height="526.0989407071545"></rect><rect x="93.49448278389991" y="318.6560668965326" fill="#000" width="160.63333129882812" height="60" opacity="1"></rect></mask><g transform="translate(93.49448278389991 318.6560668965326) rotate(0 119.91615799647252 29.521983799257555)"><text x="80.31666564941406" y="14.016" font-family="Virgil, Segoe UI Emoji" font-size="16px" fill="#1e1e1e" text-anchor="middle" style="white-space: pre;" direction="ltr" dominant-baseline="alphabetic">Provides the state </text><text x="80.31666564941406" y="34.016" font-family="Virgil, Segoe UI Emoji" font-size="16px" fill="#1e1e1e" text-anchor="middle" style="white-space: pre;" direction="ltr" dominant-baseline="alphabetic">for weighted </text><text x="80.31666564941406" y="54.016" font-family="Virgil, Segoe UI Emoji" font-size="16px" fill="#1e1e1e" text-anchor="middle" style="white-space: pre;" direction="ltr" dominant-baseline="alphabetic">assignment</text></g><g mask="url(#mask-gwGjs-MHaw2PJkw1smFfF)" stroke-linecap="round"><g transform="translate(322.86641499293273 660.8824198679704) rotate(0 0 -84.07010918976778)"><path d="M0.69 -0.12 C0.79 -27.83, 0.29 -139.06, 0.14 -167.21 M-0.41 -1.23 C-0.41 -29.18, -0.61 -141.02, -0.73 -168.84" stroke="#1e1e1e" stroke-width="1" fill="none"></path></g><g transform="translate(322.86641499293273 660.8824198679704) rotate(0 0 -84.07010918976778)"><path d="M7.89 -145.37 C5.63 -151.19, 5.14 -157.9, -0.73 -168.84 M7.89 -145.37 C7.11 -149.84, 3.23 -155.15, -0.73 -168.84" stroke="#1e1e1e" stroke-width="1" fill="none"></path></g><g transform="translate(322.86641499293273 660.8824198679704) rotate(0 0 -84.07010918976778)"><path d="M-9.21 -145.32 C-7.02 -151.25, -3.06 -157.97, -0.73 -168.84 M-9.21 -145.32 C-6.11 -149.75, -6.1 -155.07, -0.73 -168.84" stroke="#1e1e1e" stroke-width="1" fill="none"></path></g></g><mask id="mask-gwGjs-MHaw2PJkw1smFfF"><rect x="0" y="0" fill="#fff" width="422.86641499293273" height="929.0226382475059"></rect><rect x="235.76641651881164" y="546.8123106782027" fill="#000" width="174.1999969482422" height="60" opacity="1"></rect></mask><g transform="translate(235.76641651881164 546.8123106782027) rotate(0 87.08780366755582 29.590207462739045)"><text x="87.0999984741211" y="14.016" font-family="Virgil, Segoe UI Emoji" font-size="16px" fill="#1e1e1e" text-anchor="middle" style="white-space: pre;" direction="ltr" dominant-baseline="alphabetic">Registers at DEP for</text><text x="87.0999984741211" y="34.016" font-family="Virgil, Segoe UI Emoji" font-size="16px" fill="#1e1e1e" text-anchor="middle" style="white-space: pre;" direction="ltr" dominant-baseline="alphabetic">participation in block </text><text x="87.0999984741211" y="54.016" font-family="Virgil, Segoe UI Emoji" font-size="16px" fill="#1e1e1e" text-anchor="middle" style="white-space: pre;" direction="ltr" dominant-baseline="alphabetic">assignment</text></g><g mask="url(#mask-_6xEBOdhqn3PaU0H_3F11)" stroke-linecap="round"><g transform="translate(520.0965567102357 707.8589823679704) rotate(0 0 -128.5994039103142)"><path d="M-0.22 -0.87 C-0.42 -43.96, -1.33 -215.03, -1.1 -257.57 M-1.79 1.28 C-1.65 -41.71, 0.56 -213.03, 1.03 -256.23" stroke="#1e1e1e" stroke-width="1" fill="none"></path></g><g transform="translate(520.0965567102357 707.8589823679704) rotate(0 0 -128.5994039103142)"><path d="M9.3 -232.64 C5.08 -241.85, 3.34 -245.44, 1.03 -256.23 M9.3 -232.64 C5.54 -241.07, 3.74 -250.34, 1.03 -256.23" stroke="#1e1e1e" stroke-width="1" fill="none"></path></g><g transform="translate(520.0965567102357 707.8589823679704) rotate(0 0 -128.5994039103142)"><path d="M-7.8 -232.84 C-6.68 -241.96, -3.09 -245.48, 1.03 -256.23 M-7.8 -232.84 C-4.91 -241.35, -0.07 -250.54, 1.03 -256.23" stroke="#1e1e1e" stroke-width="1" fill="none"></path></g></g><mask id="mask-_6xEBOdhqn3PaU0H_3F11"><rect x="0" y="0" fill="#fff" width="620.0965567102357" height="1065.0577901885988"></rect><rect x="483.82989029788223" y="559.2595784576561" fill="#000" width="72.53333282470703" height="40" opacity="1"></rect></mask><g transform="translate(483.82989029788223 559.2595784576561) rotate(0 35.8875801242516 20.454509216081533)"><text x="36.266666412353516" y="14.016" font-family="Virgil, Segoe UI Emoji" font-size="16px" fill="#1e1e1e" text-anchor="middle" style="white-space: pre;" direction="ltr" dominant-baseline="alphabetic">executes</text><text x="36.266666412353516" y="34.016" font-family="Virgil, Segoe UI Emoji" font-size="16px" fill="#1e1e1e" text-anchor="middle" style="white-space: pre;" direction="ltr" dominant-baseline="alphabetic">workflows</text></g><g stroke-linecap="round" transform="translate(10 669.406864811139) rotate(0 317.7579943702549 70.5628892062598)"><path d="M32 0 C258.35 0, 484.7 0, 603.52 0 C624.85 0, 635.52 10.67, 635.52 32 C635.52 54.16, 635.52 76.32, 635.52 109.13 C635.52 130.46, 624.85 141.13, 603.52 141.13 C397.52 141.13, 191.52 141.13, 32 141.13 C10.67 141.13, 0 130.46, 0 109.13 C0 82.08, 0 55.04, 0 32 C0 10.67, 10.67 0, 32 0" stroke="none" stroke-width="0" fill="#ebfbee"></path><path d="M32 0 C150.92 0, 269.85 0, 603.52 0 M32 0 C241.53 0, 451.06 0, 603.52 0 M603.52 0 C624.85 0, 635.52 10.67, 635.52 32 M603.52 0 C624.85 0, 635.52 10.67, 635.52 32 M635.52 32 C635.52 56.61, 635.52 81.22, 635.52 109.13 M635.52 32 C635.52 53.56, 635.52 75.12, 635.52 109.13 M635.52 109.13 C635.52 130.46, 624.85 141.13, 603.52 141.13 M635.52 109.13 C635.52 130.46, 624.85 141.13, 603.52 141.13 M603.52 141.13 C474.45 141.13, 345.39 141.13, 32 141.13 M603.52 141.13 C419.64 141.13, 235.77 141.13, 32 141.13 M32 141.13 C10.67 141.13, 0 130.46, 0 109.13 M32 141.13 C10.67 141.13, 0 130.46, 0 109.13 M0 109.13 C0 89.31, 0 69.5, 0 32 M0 109.13 C0 92.03, 0 74.94, 0 32 M0 32 C0 10.67, 10.67 0, 32 0 M0 32 C0 10.67, 10.67 0, 32 0" stroke="#1e1e1e" stroke-width="2" fill="none"></path></g><g transform="translate(283.6413294837803 674.406864811139) rotate(0 44.11666488647461 12.5)"><text x="44.11666488647461" y="17.52" font-family="Virgil, Segoe UI Emoji" font-size="20px" fill="#1e1e1e" text-anchor="middle" style="white-space: pre;" direction="ltr" dominant-baseline="alphabetic">Operator</text></g><g stroke-linecap="round" transform="translate(38.179599464752755 711.3729500968377) rotate(0 288.12951297761083 17.5)"><path d="M2.33 2.02 C2.33 2.02, 2.33 2.02, 2.33 2.02 M2.33 2.02 C2.33 2.02, 2.33 2.02, 2.33 2.02 M0.49 16.33 C3.93 12.38, 7.37 8.42, 14.27 0.48 M0.49 16.33 C5.37 10.72, 10.25 5.11, 14.27 0.48 M0.63 28.37 C9.23 18.47, 17.84 8.57, 24.9 0.45 M0.63 28.37 C8.21 19.65, 15.79 10.92, 24.9 0.45 M5.35 35.13 C14.68 24.4, 24 13.68, 35.53 0.41 M5.35 35.13 C17.19 21.52, 29.02 7.9, 35.53 0.41 M15.98 35.09 C24.45 25.35, 32.92 15.61, 46.16 0.38 M15.98 35.09 C26.69 22.77, 37.4 10.45, 46.16 0.38 M26.61 35.06 C33.04 27.66, 39.48 20.26, 56.79 0.34 M26.61 35.06 C37.31 22.76, 48 10.46, 56.79 0.34 M37.24 35.02 C43.76 27.53, 50.28 20.03, 67.42 0.31 M37.24 35.02 C46.14 24.78, 55.05 14.54, 67.42 0.31 M47.87 34.99 C55.58 26.12, 63.3 17.25, 78.05 0.27 M47.87 34.99 C56.68 24.86, 65.49 14.72, 78.05 0.27 M57.85 35.71 C68.5 23.45, 79.16 11.19, 88.68 0.24 M57.85 35.71 C64.94 27.55, 72.03 19.4, 88.68 0.24 M68.48 35.68 C75.81 27.24, 83.14 18.81, 99.31 0.2 M68.48 35.68 C75.36 27.76, 82.24 19.84, 99.31 0.2 M79.11 35.64 C85.66 28.11, 92.21 20.57, 109.94 0.17 M79.11 35.64 C90.65 22.36, 102.19 9.08, 109.94 0.17 M89.74 35.61 C101.12 22.52, 112.5 9.42, 120.57 0.14 M89.74 35.61 C96.95 27.31, 104.17 19.01, 120.57 0.14 M100.37 35.57 C107.06 27.87, 113.76 20.17, 131.2 0.1 M100.37 35.57 C111.47 22.81, 122.56 10.04, 131.2 0.1 M111 35.54 C122.3 22.53, 133.61 9.53, 141.83 0.07 M111 35.54 C122.62 22.17, 134.24 8.8, 141.83 0.07 M121.63 35.5 C131.45 24.21, 141.26 12.92, 152.46 0.03 M121.63 35.5 C131.97 23.6, 142.32 11.7, 152.46 0.03 M132.26 35.47 C143.21 22.87, 154.17 10.27, 163.09 0 M132.26 35.47 C143.73 22.27, 155.2 9.08, 163.09 0 M142.89 35.43 C153.14 23.64, 163.39 11.86, 173.72 -0.04 M142.89 35.43 C151.13 25.95, 159.37 16.47, 173.72 -0.04 M153.52 35.4 C164.62 22.63, 175.72 9.86, 183.7 0.68 M153.52 35.4 C162.77 24.76, 172.02 14.12, 183.7 0.68 M164.15 35.37 C171.19 27.27, 178.23 19.17, 194.33 0.65 M164.15 35.37 C171.34 27.09, 178.54 18.81, 194.33 0.65 M174.78 35.33 C182.16 26.83, 189.55 18.34, 204.96 0.61 M174.78 35.33 C184.88 23.71, 194.98 12.09, 204.96 0.61 M185.41 35.3 C193.05 26.51, 200.68 17.73, 215.59 0.58 M185.41 35.3 C195.96 23.16, 206.5 11.03, 215.59 0.58 M196.04 35.26 C206.13 23.65, 216.23 12.04, 226.22 0.55 M196.04 35.26 C207.46 22.13, 218.87 8.99, 226.22 0.55 M206.67 35.23 C218.18 21.98, 229.69 8.74, 236.85 0.51 M206.67 35.23 C213.25 27.66, 219.83 20.09, 236.85 0.51 M217.3 35.19 C229.17 21.54, 241.03 7.89, 247.48 0.48 M217.3 35.19 C224.12 27.35, 230.93 19.51, 247.48 0.48 M227.93 35.16 C235.96 25.92, 243.99 16.68, 258.11 0.44 M227.93 35.16 C236.35 25.47, 244.77 15.79, 258.11 0.44 M238.56 35.12 C247.16 25.23, 255.75 15.34, 268.74 0.41 M238.56 35.12 C245.61 27.02, 252.65 18.91, 268.74 0.41 M249.19 35.09 C258.62 24.24, 268.05 13.39, 279.37 0.37 M249.19 35.09 C257.77 25.22, 266.35 15.35, 279.37 0.37 M259.82 35.06 C268.31 25.29, 276.8 15.52, 290 0.34 M259.82 35.06 C266.59 27.27, 273.35 19.49, 290 0.34 M270.45 35.02 C282.03 21.7, 293.6 8.39, 300.63 0.3 M270.45 35.02 C276.58 27.96, 282.72 20.91, 300.63 0.3 M281.08 34.99 C292.01 22.42, 302.93 9.84, 311.26 0.27 M281.08 34.99 C292.8 21.51, 304.52 8.02, 311.26 0.27 M291.05 35.71 C300.32 25.04, 309.59 14.38, 321.89 0.24 M291.05 35.71 C300.99 24.28, 310.92 12.85, 321.89 0.24 M301.68 35.67 C311.39 24.51, 321.09 13.35, 332.52 0.2 M301.68 35.67 C313.5 22.07, 325.32 8.48, 332.52 0.2 M312.31 35.64 C322.87 23.5, 333.42 11.35, 343.15 0.17 M312.31 35.64 C322.94 23.41, 333.58 11.18, 343.15 0.17 M322.94 35.6 C330.17 27.29, 337.39 18.98, 353.78 0.13 M322.94 35.6 C330.16 27.31, 337.37 19.01, 353.78 0.13 M333.57 35.57 C344.22 23.32, 354.87 11.07, 364.41 0.1 M333.57 35.57 C342.57 25.22, 351.56 14.87, 364.41 0.1 M344.2 35.53 C351.11 27.59, 358.02 19.64, 375.04 0.06 M344.2 35.53 C351.36 27.31, 358.51 19.08, 375.04 0.06 M354.83 35.5 C361.13 28.26, 367.42 21.02, 385.67 0.03 M354.83 35.5 C361.03 28.37, 367.23 21.24, 385.67 0.03 M365.46 35.46 C374.55 25.01, 383.64 14.56, 396.3 -0.01 M365.46 35.46 C372.76 27.07, 380.05 18.68, 396.3 -0.01 M376.09 35.43 C387.53 22.27, 398.97 9.11, 406.93 -0.04 M376.09 35.43 C383.12 27.35, 390.14 19.28, 406.93 -0.04 M386.72 35.4 C394.72 26.2, 402.72 17, 416.9 0.68 M386.72 35.4 C398.01 22.42, 409.29 9.44, 416.9 0.68 M397.35 35.36 C408.1 23, 418.84 10.64, 427.53 0.64 M397.35 35.36 C407.74 23.41, 418.14 11.45, 427.53 0.64 M407.98 35.33 C415.87 26.25, 423.76 17.18, 438.16 0.61 M407.98 35.33 C418.17 23.61, 428.35 11.9, 438.16 0.61 M418.61 35.29 C425.47 27.41, 432.32 19.52, 448.79 0.58 M418.61 35.29 C425.86 26.95, 433.12 18.61, 448.79 0.58 M429.24 35.26 C435.83 27.68, 442.42 20.1, 459.42 0.54 M429.24 35.26 C437.93 25.27, 446.61 15.28, 459.42 0.54 M439.87 35.22 C449.23 24.46, 458.58 13.71, 470.05 0.51 M439.87 35.22 C446.58 27.51, 453.29 19.79, 470.05 0.51 M450.5 35.19 C461.9 22.08, 473.3 8.97, 480.68 0.47 M450.5 35.19 C461.15 22.94, 471.79 10.7, 480.68 0.47 M461.13 35.15 C469.83 25.16, 478.52 15.16, 491.31 0.44 M461.13 35.15 C470.62 24.24, 480.1 13.33, 491.31 0.44 M471.76 35.12 C483.52 21.6, 495.27 8.08, 501.94 0.4 M471.76 35.12 C481.64 23.76, 491.52 12.39, 501.94 0.4 M482.39 35.09 C491.53 24.58, 500.67 14.07, 512.57 0.37 M482.39 35.09 C493.18 22.68, 503.96 10.28, 512.57 0.37 M493.02 35.05 C499.41 27.71, 505.79 20.37, 523.2 0.33 M493.02 35.05 C504.3 22.08, 515.58 9.1, 523.2 0.33 M503.65 35.02 C511.29 26.23, 518.93 17.44, 533.83 0.3 M503.65 35.02 C513 24.27, 522.35 13.51, 533.83 0.3 M514.28 34.98 C520.6 27.72, 526.92 20.45, 544.46 0.27 M514.28 34.98 C523.98 23.83, 533.68 12.68, 544.46 0.27 M524.26 35.7 C533.4 25.19, 542.53 14.68, 555.09 0.23 M524.26 35.7 C534.95 23.4, 545.65 11.09, 555.09 0.23 M534.89 35.67 C542.79 26.58, 550.69 17.49, 565.72 0.2 M534.89 35.67 C546.19 22.67, 557.49 9.66, 565.72 0.2 M545.52 35.63 C555.53 24.11, 565.55 12.59, 574.39 2.43 M545.52 35.63 C555.95 23.63, 566.39 11.62, 574.39 2.43 M556.15 35.6 C560.9 30.14, 565.64 24.68, 576.49 12.2 M556.15 35.6 C563.74 26.86, 571.33 18.13, 576.49 12.2 M566.78 35.56 C570.5 31.29, 574.21 27.01, 576.62 24.24 M566.78 35.56 C569.37 32.58, 571.96 29.6, 576.62 24.24" stroke="#ebfbee" stroke-width="1" fill="none"></path><path d="M8.75 0 C122.96 0, 237.17 0, 567.51 0 M8.75 0 C187.19 0, 365.64 0, 567.51 0 M567.51 0 C573.34 0, 576.26 2.92, 576.26 8.75 M567.51 0 C573.34 0, 576.26 2.92, 576.26 8.75 M576.26 8.75 C576.26 15.1, 576.26 21.44, 576.26 26.25 M576.26 8.75 C576.26 14.57, 576.26 20.4, 576.26 26.25 M576.26 26.25 C576.26 32.08, 573.34 35, 567.51 35 M576.26 26.25 C576.26 32.08, 573.34 35, 567.51 35 M567.51 35 C379.09 35, 190.67 35, 8.75 35 M567.51 35 C350.13 35, 132.76 35, 8.75 35 M8.75 35 C2.92 35, 0 32.08, 0 26.25 M8.75 35 C2.92 35, 0 32.08, 0 26.25 M0 26.25 C0 21.6, 0 16.94, 0 8.75 M0 26.25 C0 20.82, 0 15.39, 0 8.75 M0 8.75 C0 2.92, 2.92 0, 8.75 0 M0 8.75 C0 2.92, 2.92 0, 8.75 0" stroke="#2f9e44" stroke-width="2" fill="none"></path></g><g transform="translate(228.65911091648468 716.3729500968377) rotate(0 97.6500015258789 12.5)"><text x="97.6500015258789" y="17.52" font-family="Virgil, Segoe UI Emoji" font-size="20px" fill="#2f9e44" text-anchor="middle" style="white-space: pre;" direction="ltr" dominant-baseline="alphabetic">Ditto AVS Instance</text></g><g stroke-linecap="round" transform="translate(38.392396952054696 757.709603291609) rotate(0 137.26232294369493 16)"><path d="M0.54 4.45 C0.54 4.45, 0.54 4.45, 0.54 4.45 M0.54 4.45 C0.54 4.45, 0.54 4.45, 0.54 4.45 M0.02 17.24 C3.92 13.3, 8.25 10.68, 11.83 3.66 M0.02 17.24 C4.08 13.78, 7.67 7.99, 11.83 3.66 M2.78 26.27 C9.02 19.37, 10.44 17.46, 22.46 3.62 M2.78 26.27 C9.47 17.5, 16.78 8.55, 22.46 3.62 M8.16 32.27 C12.88 26.09, 20.92 19.64, 33.09 3.59 M8.16 32.27 C13.91 24.81, 20.85 17.48, 33.09 3.59 M18.79 32.23 C26.78 24.15, 31.5 16.21, 43.72 3.56 M18.79 32.23 C24.31 25.34, 30.64 20.71, 43.72 3.56 M29.42 32.2 C37.28 23.69, 42.39 14.88, 54.35 3.52 M29.42 32.2 C38.94 23.71, 47.29 13, 54.35 3.52 M40.05 32.17 C48 22.62, 57.59 11.38, 64.98 3.49 M40.05 32.17 C46.38 25.78, 53.29 17.76, 64.98 3.49 M50.68 32.13 C58.88 20.35, 69.19 10.65, 75.61 3.45 M50.68 32.13 C57.32 25.63, 62.41 17.43, 75.61 3.45 M61.31 32.1 C70.42 24.54, 78.12 16.26, 86.24 3.42 M61.31 32.1 C69.09 23.13, 76.09 15.04, 86.24 3.42 M71.94 32.06 C79.95 22.39, 87.45 16.75, 96.87 3.38 M71.94 32.06 C79.88 24.58, 85.9 15.48, 96.87 3.38 M82.57 32.03 C87.98 26.38, 95.17 17.52, 107.5 3.35 M82.57 32.03 C88.12 24.88, 94.65 17.21, 107.5 3.35 M93.2 31.99 C99.41 22.32, 109.41 14.2, 118.13 3.31 M93.2 31.99 C99.25 26.62, 105.46 19.51, 118.13 3.31 M103.83 31.96 C107.77 24.35, 114.18 19.51, 128.76 3.28 M103.83 31.96 C111.22 22.04, 120.03 13.67, 128.76 3.28 M114.46 31.92 C124.55 21.21, 131.6 9.7, 139.39 3.25 M114.46 31.92 C122.1 24.31, 129.5 14.18, 139.39 3.25 M125.09 31.89 C128.74 24.5, 136.09 21.27, 150.02 3.21 M125.09 31.89 C132.17 25.76, 136.32 19.02, 150.02 3.21 M135.72 31.86 C144.97 24.52, 151.29 12.6, 160.65 3.18 M135.72 31.86 C140.93 26.73, 146.49 20.32, 160.65 3.18 M146.35 31.82 C151.41 25.91, 158.61 15.03, 171.28 3.14 M146.35 31.82 C152.89 23.98, 158.17 18.13, 171.28 3.14 M156.33 32.54 C166.73 22.77, 174.37 11.16, 181.91 3.11 M156.33 32.54 C163.34 24.8, 169.85 16.42, 181.91 3.11 M166.96 32.51 C178.29 23.27, 185.16 9.45, 191.89 3.83 M166.96 32.51 C173.14 25.26, 180.02 17.86, 191.89 3.83 M177.59 32.47 C188.05 24.31, 194.34 14.36, 202.52 3.79 M177.59 32.47 C186.61 23.51, 194.14 13.51, 202.52 3.79 M188.22 32.44 C198.11 20.98, 206.51 14.58, 213.15 3.76 M188.22 32.44 C197.38 22.71, 205.46 12.52, 213.15 3.76 M198.85 32.4 C203.7 25.79, 209.71 21.63, 223.78 3.72 M198.85 32.4 C204.57 26.37, 208.31 21.15, 223.78 3.72 M209.48 32.37 C217.5 24.85, 222.02 17.49, 234.41 3.69 M209.48 32.37 C214.58 24.54, 220.54 18.89, 234.41 3.69 M220.11 32.33 C226.1 24.74, 232 17.23, 245.04 3.66 M220.11 32.33 C226.33 25.31, 232.99 17.11, 245.04 3.66 M230.74 32.3 C237.11 25.92, 242.26 18.14, 255.67 3.62 M230.74 32.3 C236.81 26.54, 240.83 20.81, 255.67 3.62 M241.37 32.27 C246.56 26.71, 251.26 19.53, 268.27 1.32 M241.37 32.27 C248.21 25.69, 254.39 18.34, 268.27 1.32 M252 32.23 C258.55 26.81, 263.03 23.62, 274.96 5.82 M252 32.23 C256.99 25.37, 262.29 20.82, 274.96 5.82 M262.63 32.2 C265.7 26.56, 271.24 22.96, 275.75 17.1 M262.63 32.2 C268.46 25.29, 273.4 20.53, 275.75 17.1" stroke="#b2f2bb" stroke-width="1" fill="none"></path><path d="M8 0 C102.53 0.55, 197.96 2.66, 266.52 0 M8 0 C79.07 0.31, 148.93 0.93, 266.52 0 M266.52 0 C272.24 -1.56, 276.25 0.79, 274.52 8 M266.52 0 C273.3 0.11, 276.64 2.2, 274.52 8 M274.52 8 C275.15 13.11, 274.02 15.66, 274.52 24 M274.52 8 C274.73 13.81, 275.07 20.41, 274.52 24 M274.52 24 C273.04 31.1, 271.29 30.19, 266.52 32 M274.52 24 C275.38 30.78, 270.22 32.5, 266.52 32 M266.52 32 C209.27 30.68, 148.85 32.71, 8 32 M266.52 32 C169.82 31.7, 72.52 30.79, 8 32 M8 32 C1.8 30.15, 0.67 27.74, 0 24 M8 32 C1.88 32.38, 0.71 27.53, 0 24 M0 24 C0.2 21.44, 1.5 16.49, 0 8 M0 24 C-0.13 18.71, 0.46 13.46, 0 8 M0 8 C1.92 2.83, 3.54 1.34, 8 0 M0 8 C0.24 1.27, 3.91 1.03, 8 0" stroke="#2f9e44" stroke-width="2" fill="none"></path></g><g transform="translate(137.1213870710426 762.709603291609) rotate(0 38.53333282470703 10.88927140816861)"><text x="38.53333282470703" y="15.262402805689167" font-family="Virgil, Segoe UI Emoji" font-size="17.422834253069826px" fill="#2f9e44" text-anchor="middle" style="white-space: pre;" direction="ltr" dominant-baseline="alphabetic">Executor</text></g><g stroke-linecap="round" transform="translate(324.2292876239262 756.9846621158786) rotate(0 143.90757892730244 16)"><path d="M0.54 4.45 C0.54 4.45, 0.54 4.45, 0.54 4.45 M0.54 4.45 C0.54 4.45, 0.54 4.45, 0.54 4.45 M0.02 17.24 C3.64 14.38, 7.9 10, 11.83 3.66 M0.02 17.24 C3.93 12.29, 9.39 7.5, 11.83 3.66 M2.78 26.27 C8.57 22.5, 11.28 15.43, 22.46 3.62 M2.78 26.27 C7.89 20.28, 14.99 13.03, 22.46 3.62 M8.16 32.27 C15.62 22.21, 24.74 11.31, 33.09 3.59 M8.16 32.27 C14.67 24.19, 22.33 17.23, 33.09 3.59 M18.79 32.23 C24.52 23.34, 31.69 15.62, 43.72 3.56 M18.79 32.23 C23.76 26.14, 29.71 20.13, 43.72 3.56 M29.42 32.2 C37.84 22.43, 42.86 16.97, 54.35 3.52 M29.42 32.2 C39.63 21.6, 48.94 9.09, 54.35 3.52 M40.05 32.17 C47.25 22.88, 55.65 13.57, 64.98 3.49 M40.05 32.17 C49.44 21.23, 57.8 10.96, 64.98 3.49 M50.68 32.13 C55.27 25.71, 62.82 20.07, 75.61 3.45 M50.68 32.13 C60.42 21.43, 69.02 11.21, 75.61 3.45 M61.31 32.1 C70.02 23.39, 77.86 12.56, 86.24 3.42 M61.31 32.1 C66.81 26.16, 72.09 19.42, 86.24 3.42 M71.94 32.06 C76.36 26.25, 80.07 22.24, 96.87 3.38 M71.94 32.06 C79.75 22.66, 89.38 12.68, 96.87 3.38 M82.57 32.03 C90.78 21.63, 102.85 9.57, 107.5 3.35 M82.57 32.03 C89.62 23.5, 96.23 15.11, 107.5 3.35 M93.2 31.99 C97.21 25.52, 102.65 19.8, 118.13 3.31 M93.2 31.99 C102.13 20.76, 113.33 8.3, 118.13 3.31 M103.83 31.96 C110.78 23.72, 118.06 15.73, 128.76 3.28 M103.83 31.96 C110.68 25.67, 116.85 18.28, 128.76 3.28 M114.46 31.92 C122.32 21.72, 130.42 14.26, 139.39 3.25 M114.46 31.92 C123.43 20.99, 134.73 8.56, 139.39 3.25 M125.09 31.89 C129.23 24.05, 137.11 20.92, 150.02 3.21 M125.09 31.89 C134.97 20.9, 145.21 10.48, 150.02 3.21 M135.72 31.86 C143.26 20.8, 155.27 10.29, 160.65 3.18 M135.72 31.86 C144.87 19.85, 154.52 8.72, 160.65 3.18 M146.35 31.82 C154.91 19.85, 166.83 10.69, 171.28 3.14 M146.35 31.82 C153.36 25.76, 158.44 18.38, 171.28 3.14 M156.33 32.54 C165.93 21.89, 175.08 9.93, 181.91 3.11 M156.33 32.54 C165.26 22.91, 171.6 15.07, 181.91 3.11 M166.96 32.51 C176.27 21.87, 185.95 9.47, 191.89 3.83 M166.96 32.51 C174.81 24.43, 182.14 16.3, 191.89 3.83 M177.59 32.47 C188.04 21.59, 196.45 11.51, 202.52 3.79 M177.59 32.47 C185.97 24.17, 194.28 14.73, 202.52 3.79 M188.22 32.44 C194.1 27.43, 199.21 21.66, 213.15 3.76 M188.22 32.44 C195.26 23.66, 204.88 13.91, 213.15 3.76 M198.85 32.4 C204.07 23.4, 214.73 16.76, 223.78 3.72 M198.85 32.4 C206.63 23.28, 213.61 15, 223.78 3.72 M209.48 32.37 C216.49 21.17, 227.79 11.67, 234.41 3.69 M209.48 32.37 C214.33 26.73, 219.37 20.4, 234.41 3.69 M220.11 32.33 C225.71 23.08, 232.35 16.74, 245.04 3.66 M220.11 32.33 C227.55 22.31, 236.16 14.05, 245.04 3.66 M230.74 32.3 C236.64 24.78, 245.71 16.73, 255.67 3.62 M230.74 32.3 C238.13 22.62, 246.67 13.01, 255.67 3.62 M241.37 32.27 C248.35 22.54, 258.16 14.57, 266.3 3.59 M241.37 32.27 C249.27 21.67, 259.14 12.31, 266.3 3.59 M252 32.23 C258.53 22.85, 267.87 12.58, 280.21 -0.22 M252 32.23 C257.85 24.45, 263.18 17.97, 280.21 -0.22 M262.63 32.2 C270.03 25.69, 275.59 20.53, 287.56 3.52 M262.63 32.2 C266.88 26.45, 272.02 19.9, 287.56 3.52 M273.26 32.16 C280.68 23.64, 286.06 17.65, 292.94 9.52 M273.26 32.16 C278.54 26.5, 283.04 22.17, 292.94 9.52 M281.92 34.39 C283.27 32.06, 286.87 29.64, 289.79 25.33 M281.92 34.39 C285.15 31.54, 287.92 27.58, 289.79 25.33" stroke="#b2f2bb" stroke-width="1" fill="none"></path><path d="M8 0 C78.14 -2.42, 148.4 -0.91, 279.82 0 M8 0 C68.02 -0.55, 128.42 -0.67, 279.82 0 M279.82 0 C286.4 0.1, 289.65 2.26, 287.82 8 M279.82 0 C284.35 1.48, 287.96 3.42, 287.82 8 M287.82 8 C289.34 12.28, 288.18 20.02, 287.82 24 M287.82 8 C287.36 12.36, 287.72 14.59, 287.82 24 M287.82 24 C288.56 30.59, 283.72 32.43, 279.82 32 M287.82 24 C286.14 28.28, 284.53 34.05, 279.82 32 M279.82 32 C212.38 33.34, 142.23 34.87, 8 32 M279.82 32 C193.56 29.2, 108.24 29.31, 8 32 M8 32 C1.98 32.33, 0.62 27.77, 0 24 M8 32 C0.57 31.49, -0.74 29.57, 0 24 M0 24 C-0.01 18.51, 0.28 12.59, 0 8 M0 24 C0.67 19.97, 0.25 16.35, 0 8 M0 8 C0.21 1.45, 3.75 0.89, 8 0 M0 8 C1.46 3.59, 1.35 -0.29, 8 0" stroke="#2f9e44" stroke-width="2" fill="none"></path></g><g transform="translate(429.4701986129967 761.9846621158786) rotate(0 38.66666793823242 10.88927140816861)"><text x="38.66666793823242" y="15.262402805689167" font-family="Virgil, Segoe UI Emoji" font-size="17.422834253069826px" fill="#2f9e44" text-anchor="middle" style="white-space: pre;" direction="ltr" dominant-baseline="alphabetic">Attester</text></g><g stroke-linecap="round" transform="translate(884.6675661131003 515.1585118804351) rotate(0 143.90757892730244 38.924081613022736)"><path d="M19.46 0 C85.38 0, 151.3 0, 268.35 0 C281.33 0, 287.82 6.49, 287.82 19.46 C287.82 31.04, 287.82 42.61, 287.82 58.39 C287.82 71.36, 281.33 77.85, 268.35 77.85 C185.05 77.85, 101.74 77.85, 19.46 77.85 C6.49 77.85, 0 71.36, 0 58.39 C0 49.74, 0 41.1, 0 19.46 C0 6.49, 6.49 0, 19.46 0" stroke="none" stroke-width="0" fill="#ebfbee"></path><path d="M19.46 0 C86.41 0, 153.36 0, 268.35 0 M19.46 0 C74.67 0, 129.88 0, 268.35 0 M268.35 0 C281.33 0, 287.82 6.49, 287.82 19.46 M268.35 0 C281.33 0, 287.82 6.49, 287.82 19.46 M287.82 19.46 C287.82 27.77, 287.82 36.07, 287.82 58.39 M287.82 19.46 C287.82 34.57, 287.82 49.69, 287.82 58.39 M287.82 58.39 C287.82 71.36, 281.33 77.85, 268.35 77.85 M287.82 58.39 C287.82 71.36, 281.33 77.85, 268.35 77.85 M268.35 77.85 C198.96 77.85, 129.56 77.85, 19.46 77.85 M268.35 77.85 C216.75 77.85, 165.15 77.85, 19.46 77.85 M19.46 77.85 C6.49 77.85, 0 71.36, 0 58.39 M19.46 77.85 C6.49 77.85, 0 71.36, 0 58.39 M0 58.39 C0 46.48, 0 34.58, 0 19.46 M0 58.39 C0 46.39, 0 34.39, 0 19.46 M0 19.46 C0 6.49, 6.49 0, 19.46 0 M0 19.46 C0 6.49, 6.49 0, 19.46 0" stroke="#1e1e1e" stroke-width="2" fill="none"></path></g><g transform="translate(943.2251465662821 541.5825934934578) rotate(0 85.3499984741211 12.5)"><text x="85.3499984741211" y="17.52" font-family="Virgil, Segoe UI Emoji" font-size="20px" fill="#1e1e1e" text-anchor="middle" style="white-space: pre;" direction="ltr" dominant-baseline="alphabetic">Ditto Aggregator</text></g><g stroke-linecap="round" transform="translate(834.4660549367436 209.24324389130402) rotate(0 187.22340436515833 81.85391957071113)"><path d="M7.86 8.16 C7.86 8.16, 7.86 8.16, 7.86 8.16 M7.86 8.16 C7.86 8.16, 7.86 8.16, 7.86 8.16 M1.43 27.75 C10.11 19.22, 19.14 8.19, 24.4 1.33 M1.43 27.75 C7.52 21.08, 12.06 14.24, 24.4 1.33 M0.91 40.54 C9.6 33.56, 15.75 23.53, 36.34 -0.21 M0.91 40.54 C13.04 26.24, 24.92 11.89, 36.34 -0.21 M1.04 52.58 C14.74 37.55, 30.66 20, 46.97 -0.25 M1.04 52.58 C12.6 38.57, 24.66 25.05, 46.97 -0.25 M1.18 64.62 C23.19 40.37, 45.49 13.87, 57.6 -0.28 M1.18 64.62 C13.38 48.98, 27.63 36.2, 57.6 -0.28 M1.31 76.67 C28.53 46.74, 51.91 17.99, 67.57 0.44 M1.31 76.67 C21.69 53.4, 41.91 31.31, 67.57 0.44 M1.44 88.71 C30.23 53.86, 60.23 18.33, 78.2 0.41 M1.44 88.71 C26.26 61.4, 51.15 33.58, 78.2 0.41 M0.92 101.5 C21.23 77.07, 42.39 56.76, 88.83 0.37 M0.92 101.5 C32.94 64.09, 64.71 27.21, 88.83 0.37 M1.05 113.54 C35.66 74.4, 68.46 36.18, 99.46 0.34 M1.05 113.54 C39.77 68.11, 79.59 24.59, 99.46 0.34 M1.19 125.58 C34.53 90.37, 66.18 53.19, 110.09 0.3 M1.19 125.58 C36.07 87.24, 69.99 46.74, 110.09 0.3 M1.32 137.62 C39.99 92.25, 78.13 47.96, 120.72 0.27 M1.32 137.62 C46.92 86.08, 92.14 36.31, 120.72 0.27 M3.42 147.4 C52.68 92.72, 99.85 33.86, 131.35 0.23 M3.42 147.4 C34.26 111.14, 65.79 73.28, 131.35 0.23 M8.15 154.16 C50.29 107.43, 90.75 59, 141.98 0.2 M8.15 154.16 C39.81 117.68, 72.31 81.73, 141.98 0.2 M13.53 160.16 C55.99 114.84, 95.25 65.68, 152.61 0.16 M13.53 160.16 C61.79 104.43, 112.75 47.7, 152.61 0.16 M22.19 162.39 C51.62 128.72, 82.97 94.01, 163.24 0.13 M22.19 162.39 C68.28 111.91, 113.58 60.46, 163.24 0.13 M31.51 163.87 C78.68 107.18, 127.76 52.6, 173.87 0.09 M31.51 163.87 C66.48 125.65, 101.56 85.04, 173.87 0.09 M42.14 163.83 C76.7 123.91, 109.53 86.42, 184.5 0.06 M42.14 163.83 C72.06 128.32, 102.49 93.69, 184.5 0.06 M52.11 164.55 C90.85 116.99, 132.41 74.47, 195.13 0.03 M52.11 164.55 C83.51 129.27, 113.81 94.4, 195.13 0.03 M62.74 164.52 C111.44 109.57, 160.01 55.68, 205.76 -0.01 M62.74 164.52 C101.24 118.25, 141.38 73.35, 205.76 -0.01 M73.37 164.48 C124.27 108.97, 172.8 50.63, 216.39 -0.04 M73.37 164.48 C129.53 99.1, 186.3 33.83, 216.39 -0.04 M84 164.45 C132.1 112.52, 178.38 56.56, 227.02 -0.08 M84 164.45 C127.44 114.65, 173.06 62.33, 227.02 -0.08 M94.63 164.41 C123.64 128.31, 154.87 95.32, 237.65 -0.11 M94.63 164.41 C123.1 131.34, 153.21 95.01, 237.65 -0.11 M105.26 164.38 C137.23 127.58, 168.12 91.92, 248.28 -0.15 M105.26 164.38 C147.6 116.05, 190.3 67.99, 248.28 -0.15 M115.89 164.35 C155.32 118.79, 197.22 73.18, 258.91 -0.18 M115.89 164.35 C159.27 116.87, 201.69 68.83, 258.91 -0.18 M126.52 164.31 C163.26 120.92, 200.79 79.15, 269.54 -0.22 M126.52 164.31 C161.77 124.8, 197.58 84.77, 269.54 -0.22 M137.15 164.28 C186.66 107.38, 238.76 49.68, 280.17 -0.25 M137.15 164.28 C191.4 101.17, 246.57 36.72, 280.17 -0.25 M147.78 164.24 C187.04 115.46, 229.09 67.91, 290.8 -0.28 M147.78 164.24 C198.3 106.29, 248.94 47.24, 290.8 -0.28 M158.41 164.21 C208.54 106.21, 257.54 50.35, 300.78 0.44 M158.41 164.21 C191.39 124.13, 226.09 83.36, 300.78 0.44 M169.04 164.17 C223.15 100.35, 280.55 34.82, 311.41 0.4 M169.04 164.17 C203.91 124.75, 239.51 84.72, 311.41 0.4 M179.67 164.14 C212.13 128.4, 241.24 91.89, 322.04 0.37 M179.67 164.14 C226.27 113.75, 270.5 62.47, 322.04 0.37 M190.3 164.1 C223.36 127.95, 257.95 87.28, 332.67 0.33 M190.3 164.1 C238.73 109.48, 287.06 53.81, 332.67 0.33 M200.93 164.07 C232.01 131.17, 261.04 95.33, 343.3 0.3 M200.93 164.07 C240.57 119.47, 277.84 75.98, 343.3 0.3 M211.56 164.03 C262.26 107.27, 308.49 52.87, 352.62 1.77 M211.56 164.03 C250.44 118.6, 290.6 72.79, 352.62 1.77 M222.19 164 C249.82 129.89, 279.2 97.1, 360.62 4.76 M222.19 164 C259.78 117.88, 299.02 73.81, 360.62 4.76 M232.82 163.97 C262.39 128.05, 293.65 95.71, 367.32 9.25 M232.82 163.97 C271.87 118.66, 311.8 75.53, 367.32 9.25 M243.45 163.93 C297.12 103.33, 346.23 45.07, 372.04 16.01 M243.45 163.93 C286.19 114.38, 329.5 66, 372.04 16.01 M254.08 163.9 C279.51 132.02, 305.4 101.85, 374.8 25.03 M254.08 163.9 C281.56 132.68, 309.76 98.57, 374.8 25.03 M264.71 163.86 C307.84 112.84, 350.47 64.42, 374.93 37.07 M264.71 163.86 C297.61 125.09, 332.57 85.59, 374.93 37.07 M275.34 163.83 C303.73 133.63, 331.07 99.77, 375.07 49.11 M275.34 163.83 C310.64 125.12, 344.37 85.3, 375.07 49.11 M285.32 164.55 C312.28 132.83, 341.74 101.35, 374.54 61.91 M285.32 164.55 C314.15 131.48, 342.48 100.54, 374.54 61.91 M295.95 164.51 C312.86 147.16, 328.19 125.91, 374.68 73.95 M295.95 164.51 C321.25 135.37, 345.69 107.09, 374.68 73.95 M306.58 164.48 C328.23 138.27, 348.07 113.07, 374.81 85.99 M306.58 164.48 C329.45 137.47, 352.64 111.63, 374.81 85.99 M317.21 164.44 C336.24 140.93, 356.72 116.23, 374.94 98.03 M317.21 164.44 C340.33 139.07, 363.25 112.13, 374.94 98.03 M327.84 164.41 C341.87 149.23, 350.39 137.37, 375.08 110.07 M327.84 164.41 C337.53 153.75, 349.03 141.86, 375.08 110.07 M338.47 164.38 C351.33 150.79, 366.08 133.46, 375.21 122.11 M338.47 164.38 C348.06 152.97, 357.77 141.89, 375.21 122.11 M350.41 162.83 C356.59 157.38, 362.57 149.33, 374.03 135.66 M350.41 162.83 C355.14 156.84, 361.27 148.81, 374.03 135.66" stroke="#ebfbee" stroke-width="1" fill="none"></path><path d="M32 0 C117.7 0.81, 204.31 0.47, 342.45 0 M32 0 C126.43 0.92, 221.41 0.69, 342.45 0 M342.45 0 C364.86 -0.76, 373.41 12.65, 374.45 32 M342.45 0 C361.79 0.61, 375.44 9.02, 374.45 32 M374.45 32 C375.76 69.89, 372.19 109.66, 374.45 131.71 M374.45 32 C373.01 67.73, 373.47 105.26, 374.45 131.71 M374.45 131.71 C373.5 152.66, 365.36 165.24, 342.45 163.71 M374.45 131.71 C373.96 152.56, 365.55 164.08, 342.45 163.71 M342.45 163.71 C223.5 163.23, 106.07 162.26, 32 163.71 M342.45 163.71 C243.48 161.81, 145.59 162.04, 32 163.71 M32 163.71 C11.64 165.54, -1.03 153.22, 0 131.71 M32 163.71 C10.8 164.32, -0.35 152.03, 0 131.71 M0 131.71 C0.99 96.82, 2.16 60.39, 0 32 M0 131.71 C0.09 108.24, -1.11 83.85, 0 32 M0 32 C1.95 11.03, 11.04 1.98, 32 0 M0 32 C-0.81 12.94, 9.5 -1.12, 32 0" stroke="#1e1e1e" stroke-width="2" fill="none"></path></g><g transform="translate(860.4394593019015 214.24324389130402) rotate(0 161.25 12.5)"><text x="161.25" y="17.52" font-family="Virgil, Segoe UI Emoji" font-size="20px" fill="#1e1e1e" text-anchor="middle" style="white-space: pre;" direction="ltr" dominant-baseline="alphabetic">Ditto Attestation Center (DAC)</text></g><g stroke-linecap="round" transform="translate(1033.6317545466482 269.0462928750728) rotate(0 76.83084329886924 30)"><path d="M15 0 C62.88 1.06, 110.16 -1.47, 138.66 0 M15 0 C60.61 -0.79, 104.61 0.59, 138.66 0 M138.66 0 C146.93 0.53, 154.53 3.57, 153.66 15 M138.66 0 C150.63 -1.04, 151.96 7.03, 153.66 15 M153.66 15 C154.65 21.72, 153.82 29.83, 153.66 45 M153.66 15 C153.11 22.44, 154.37 31.02, 153.66 45 M153.66 45 C153.24 54.58, 150.2 60.32, 138.66 60 M153.66 45 C155.48 52.75, 147.67 57.87, 138.66 60 M138.66 60 C97.76 60.2, 54.63 57.76, 15 60 M138.66 60 C104.78 61.05, 69.42 60.22, 15 60 M15 60 C5.12 60.53, -0.31 54.12, 0 45 M15 60 C6.35 58.1, 2.21 55.19, 0 45 M0 45 C-1.41 35.78, 0.69 25.66, 0 15 M0 45 C1.15 34.98, 0.36 25.59, 0 15 M0 15 C-0.7 6.97, 3.99 -0.97, 15 0 M0 15 C0.54 3.26, 6.39 -0.41, 15 0" stroke="#2f9e44" stroke-width="2" fill="none"></path></g><g transform="translate(1078.1125993713968 279.0462928750728) rotate(0 32.349998474121094 20)"><text x="32.349998474121094" y="14.016" font-family="Virgil, Segoe UI Emoji" font-size="16px" fill="#2f9e44" text-anchor="middle" style="white-space: pre;" direction="ltr" dominant-baseline="alphabetic">Reward</text><text x="32.349998474121094" y="34.016" font-family="Virgil, Segoe UI Emoji" font-size="16px" fill="#2f9e44" text-anchor="middle" style="white-space: pre;" direction="ltr" dominant-baseline="alphabetic">Manager</text></g><g stroke-linecap="round" transform="translate(852.0092918531918 271.49851076171603) rotate(0 80.76763984105037 30.29295096908504)"><path d="M15.15 0 C67.86 0.58, 118.65 1.54, 146.39 0 M15.15 0 C48.66 -1.03, 84.35 -2.02, 146.39 0 M146.39 0 C158.2 -0.91, 160.05 6.81, 161.54 15.15 M146.39 0 C155.83 -2.08, 162.39 6.5, 161.54 15.15 M161.54 15.15 C160.69 21.54, 163.38 28.05, 161.54 45.44 M161.54 15.15 C161.56 23.45, 162.54 32.33, 161.54 45.44 M161.54 45.44 C163.11 53.58, 155.62 58.73, 146.39 60.59 M161.54 45.44 C162.3 53.71, 155.7 60.97, 146.39 60.59 M146.39 60.59 C102.51 58.75, 59.71 60.36, 15.15 60.59 M146.39 60.59 C95.02 60.97, 43.39 60.26, 15.15 60.59 M15.15 60.59 C6.22 58.94, 1.92 55.7, 0 45.44 M15.15 60.59 C6.05 62.12, 0.24 54.14, 0 45.44 M0 45.44 C0.66 33.56, -0.39 25.94, 0 15.15 M0 45.44 C-0.41 36.79, -0.56 25.68, 0 15.15 M0 15.15 C0.47 3.53, 6.26 -0.36, 15.15 0 M0 15.15 C0.93 6.29, 5.85 -0.06, 15.15 0" stroke="#2f9e44" stroke-width="2" fill="none"></path></g><g transform="translate(900.4269332201211 281.7914617308011) rotate(0 32.349998474121094 20)"><text x="32.349998474121094" y="14.016" font-family="Virgil, Segoe UI Emoji" font-size="16px" fill="#2f9e44" text-anchor="middle" style="white-space: pre;" direction="ltr" dominant-baseline="alphabetic">Slash</text><text x="32.349998474121094" y="34.016" font-family="Virgil, Segoe UI Emoji" font-size="16px" fill="#2f9e44" text-anchor="middle" style="white-space: pre;" direction="ltr" dominant-baseline="alphabetic">Manager</text></g><g stroke-linecap="round" transform="translate(259.1483226297496 318.94864647221516) rotate(0 181.26492892762235 81.85391957071113)"><path d="M7.86 8.16 C7.86 8.16, 7.86 8.16, 7.86 8.16 M7.86 8.16 C7.86 8.16, 7.86 8.16, 7.86 8.16 M2.75 26.24 C6.03 20.13, 12.07 18.22, 21.12 5.11 M2.75 26.24 C7.75 20.51, 11.59 15.63, 21.12 5.11 M2.88 38.28 C9.96 28.84, 17.69 21.7, 34.37 2.05 M2.88 38.28 C14 24.63, 25.15 11.63, 34.37 2.05 M2.36 51.07 C17.12 35.74, 28.9 22.22, 45 2.02 M2.36 51.07 C16.31 35.46, 30.09 17.94, 45 2.02 M2.49 63.11 C22.66 39.73, 45.23 14.51, 55.63 1.98 M2.49 63.11 C16.24 46.29, 30.7 30.06, 55.63 1.98 M2.62 75.16 C21.73 52.67, 41.19 28.16, 66.26 1.95 M2.62 75.16 C18.81 56.05, 35.28 38.52, 66.26 1.95 M2.76 87.2 C26.83 58.93, 52.71 28.25, 76.89 1.91 M2.76 87.2 C30.44 55.3, 57.71 23.36, 76.89 1.91 M2.89 99.24 C34.18 62.56, 67.38 25.57, 87.52 1.88 M2.89 99.24 C34.93 62.68, 65.69 26.43, 87.52 1.88 M2.37 112.03 C38.46 67.4, 77.79 26.4, 98.15 1.85 M2.37 112.03 C26.65 82.19, 52.27 54.41, 98.15 1.85 M2.5 124.07 C28.98 91.27, 58.03 57.68, 108.78 1.81 M2.5 124.07 C28.23 93.29, 54.21 63.92, 108.78 1.81 M2.63 136.11 C41.12 88.85, 79.8 46.61, 119.41 1.78 M2.63 136.11 C28.74 108.07, 53 79.66, 119.41 1.78 M6.05 144.38 C35.57 113.39, 64.79 81.08, 130.04 1.74 M6.05 144.38 C49.17 95.03, 92.32 45.12, 130.04 1.74 M8.15 154.16 C45.43 106.81, 86.78 63.61, 140.67 1.71 M8.15 154.16 C41.25 116.58, 71.82 81.27, 140.67 1.71 M13.53 160.16 C68.02 99.16, 120.84 38.19, 150.65 2.43 M13.53 160.16 C64.56 98.3, 117.93 38.64, 150.65 2.43 M20.88 163.9 C62.72 113.91, 103.05 65.14, 161.28 2.39 M20.88 163.9 C48.58 130.13, 78.34 97.17, 161.28 2.39 M30.2 165.38 C77.84 115.12, 124.13 61.03, 171.91 2.36 M30.2 165.38 C76.95 111.78, 123.94 57.05, 171.91 2.36 M37.55 169.12 C83.41 117.6, 129.35 61.39, 182.54 2.32 M37.55 169.12 C88.8 108.97, 142.23 48.01, 182.54 2.32 M48.18 169.08 C89.79 121.57, 132.37 73.42, 193.17 2.29 M48.18 169.08 C105.08 103.52, 161.99 36.8, 193.17 2.29 M58.81 169.05 C115.67 102.51, 175.95 36.15, 203.8 2.26 M58.81 169.05 C117.56 102.79, 174.37 37.28, 203.8 2.26 M69.44 169.01 C123.81 103.98, 179.6 43.66, 214.43 2.22 M69.44 169.01 C111.06 121.22, 150.75 75.93, 214.43 2.22 M80.07 168.98 C132.14 111.34, 181.5 51.63, 225.06 2.19 M80.07 168.98 C129.91 112.43, 178.21 56.73, 225.06 2.19 M90.7 168.94 C121.98 134.72, 152.17 100.21, 235.69 2.15 M90.7 168.94 C134.56 118.17, 178.15 67.8, 235.69 2.15 M101.33 168.91 C136.81 125.53, 173.21 84.01, 246.32 2.12 M101.33 168.91 C147.39 114.58, 194.98 61.56, 246.32 2.12 M111.96 168.87 C169.58 102.23, 225.24 37.31, 256.95 2.08 M111.96 168.87 C152.77 121.38, 194.11 74.51, 256.95 2.08 M122.59 168.84 C174.06 107.11, 224.77 49.16, 267.58 2.05 M122.59 168.84 C180.85 101.19, 237.46 35.75, 267.58 2.05 M133.22 168.8 C176.47 121.55, 215.13 73.34, 278.21 2.01 M133.22 168.8 C171.63 125.61, 209.62 82.18, 278.21 2.01 M143.85 168.77 C199.24 104.93, 253.08 43.01, 288.84 1.98 M143.85 168.77 C185.79 122.56, 225.99 74.78, 288.84 1.98 M154.48 168.74 C191.2 129.84, 223.47 90.37, 299.47 1.94 M154.48 168.74 C207.84 107.56, 260.75 47.39, 299.47 1.94 M165.11 168.7 C218.63 107.55, 274.9 44.24, 310.1 1.91 M165.11 168.7 C204.43 122.36, 245.46 77.56, 310.1 1.91 M175.74 168.67 C222.64 113.69, 270.33 61.01, 320.73 1.88 M175.74 168.67 C227.34 109.46, 278.12 52.02, 320.73 1.88 M186.37 168.63 C233.06 113.98, 281.64 61.3, 332.01 1.09 M186.37 168.63 C229.6 119.35, 273.75 69.27, 332.01 1.09 M197 168.6 C233.1 125.25, 272.71 81.45, 341.33 2.56 M197 168.6 C235.68 124.83, 273.37 81.13, 341.33 2.56 M207.63 168.56 C252.99 117.35, 299.21 61.61, 349.34 5.55 M207.63 168.56 C243.57 128.38, 277.83 86.52, 349.34 5.55 M218.26 168.53 C248.8 134.26, 281.3 94.8, 356.69 9.28 M218.26 168.53 C269.97 108.5, 321.97 48.04, 356.69 9.28 M228.89 168.49 C276.09 110.11, 328.62 51.09, 361.41 16.04 M228.89 168.49 C267.95 124.14, 306.13 79.68, 361.41 16.04 M239.52 168.46 C274.59 129.54, 307.41 88.66, 363.51 25.82 M239.52 168.46 C271.42 132.72, 301.8 98.1, 363.51 25.82 M250.15 168.43 C276.28 140.19, 299.45 111.48, 363.65 37.86 M250.15 168.43 C288.16 124.89, 324.11 82.76, 363.65 37.86 M260.12 169.15 C297.24 126.18, 333 88.13, 363.78 49.9 M260.12 169.15 C288.12 135.57, 316.72 104.57, 363.78 49.9 M270.75 169.11 C294.39 142.6, 315.43 116.83, 363.91 61.94 M270.75 169.11 C299.82 134.5, 331.49 98.08, 363.91 61.94 M281.38 169.08 C314.38 130.97, 347.63 95, 364.05 73.98 M281.38 169.08 C308.97 137.97, 335.5 107.52, 364.05 73.98 M292.01 169.04 C313.13 146.19, 331.96 122.33, 363.52 86.78 M292.01 169.04 C309.59 149.27, 325.07 130.83, 363.52 86.78 M302.64 169.01 C323.01 147.32, 339.98 124.71, 363.66 98.82 M302.64 169.01 C320.43 147.17, 338.78 127.88, 363.66 98.82 M313.27 168.97 C330.47 147.55, 350.29 127.5, 363.79 110.86 M313.27 168.97 C322.82 157.5, 332.78 146.88, 363.79 110.86 M323.9 168.94 C337.28 150.75, 354.32 134.23, 363.92 122.9 M323.9 168.94 C340.48 150.92, 355.04 133.52, 363.92 122.9 M335.19 168.15 C341.79 158.87, 352.26 150.07, 364.71 134.19 M335.19 168.15 C347.51 155.81, 358 142.23, 364.71 134.19" stroke="#ebfbee" stroke-width="1" fill="none"></path><path d="M32 0 C122.88 -1.95, 216.34 -2.46, 330.53 0 M32 0 C130.15 1.24, 226.5 2.22, 330.53 0 M330.53 0 C351.29 -1.81, 363.27 11.93, 362.53 32 M330.53 0 C350.22 0.5, 360.85 9.61, 362.53 32 M362.53 32 C363.04 60.81, 364.95 86.06, 362.53 131.71 M362.53 32 C364.09 58.86, 362.87 86.76, 362.53 131.71 M362.53 131.71 C363.2 151.45, 351.18 164.04, 330.53 163.71 M362.53 131.71 C363.24 151.24, 349.77 163.2, 330.53 163.71 M330.53 163.71 C251.88 164.02, 170.66 164.86, 32 163.71 M330.53 163.71 C233.47 162.13, 136.24 162.8, 32 163.71 M32 163.71 C11.54 165.05, 0.21 151.83, 0 131.71 M32 163.71 C11.91 164.73, 1.46 153.96, 0 131.71 M0 131.71 C0.49 107.88, 2.11 82.61, 0 32 M0 131.71 C0.74 91.2, 1.11 52.03, 0 32 M0 32 C0.81 11.75, 11.36 -0.05, 32 0 M0 32 C2.07 12.16, 10.97 1.6, 32 0" stroke="#1e1e1e" stroke-width="2" fill="none"></path></g><g transform="translate(319.229917206786 323.94864647221516) rotate(0 121.18333435058594 12.5)"><text x="121.18333435058594" y="17.52" font-family="Virgil, Segoe UI Emoji" font-size="20px" fill="#1e1e1e" text-anchor="middle" style="white-space: pre;" direction="ltr" dominant-baseline="alphabetic">Ditto Entry Point (DEP)</text></g><g stroke-linecap="round" transform="translate(461.9856476721361 384.7944428063149) rotate(0 70.86492088234309 30)"><path d="M3.99 3.47 C3.99 3.47, 3.99 3.47, 3.99 3.47 M3.99 3.47 C3.99 3.47, 3.99 3.47, 3.99 3.47 M0.85 19.29 C3.57 15.52, 9.59 11.4, 17.25 0.42 M0.85 19.29 C4.43 14.29, 9.22 9.44, 17.25 0.42 M0.98 31.33 C9.51 22.62, 14.76 14.07, 27.88 0.38 M0.98 31.33 C6.94 23.96, 13.69 18.84, 27.88 0.38 M0.46 44.12 C11.91 31.36, 20.66 18.38, 37.85 1.1 M0.46 44.12 C14.27 30.9, 26.83 15.35, 37.85 1.1 M2.56 53.9 C17.76 35.8, 34.8 15.99, 48.48 1.07 M2.56 53.9 C14.08 41.61, 26.21 27.59, 48.48 1.07 M8.59 59.15 C26.19 36.78, 45.71 16.49, 59.11 1.03 M8.59 59.15 C21.63 45.17, 33.12 29.62, 59.11 1.03 M19.22 59.11 C36.29 42.56, 51.97 25.1, 69.74 1 M19.22 59.11 C34.27 41.62, 48.82 24.86, 69.74 1 M29.85 59.08 C44.74 41.45, 59.33 27.66, 80.37 0.97 M29.85 59.08 C44.97 43.55, 58.17 26.19, 80.37 0.97 M39.83 59.8 C51.68 46.53, 65.33 30.23, 91 0.93 M39.83 59.8 C51.59 45.24, 64.39 30.35, 91 0.93 M50.46 59.76 C64.28 41.67, 81.76 24.95, 100.98 1.65 M50.46 59.76 C62.36 47.88, 74.41 34.05, 100.98 1.65 M61.09 59.73 C70.83 45.22, 83.1 33.63, 111.61 1.62 M61.09 59.73 C76.82 40.19, 93.84 22.36, 111.61 1.62 M71.72 59.69 C91.12 37.79, 107.71 15.3, 122.24 1.58 M71.72 59.69 C87.21 43.24, 102.25 24.32, 122.24 1.58 M82.35 59.66 C91.14 46.13, 103.74 36.86, 133.52 0.79 M82.35 59.66 C95.88 46.19, 106.28 32.26, 133.52 0.79 M92.98 59.63 C108.78 44.52, 121.71 24.99, 139.56 6.04 M92.98 59.63 C102.68 49.3, 112.71 37.77, 139.56 6.04 M103.61 59.59 C112.44 49.53, 123.29 34.45, 142.32 15.06 M103.61 59.59 C113.64 47.76, 122.3 38.02, 142.32 15.06 M113.58 60.31 C124.99 49.36, 133.65 36.57, 141.79 27.86 M113.58 60.31 C121.3 51.77, 128.52 42.57, 141.79 27.86 M124.21 60.28 C132.64 54.29, 136.65 43.74, 141.93 39.9 M124.21 60.28 C128.57 55.13, 133.59 49.86, 141.93 39.9 M3.95 56.42 C3.95 56.42, 3.95 56.42, 3.95 56.42 M3.95 56.42 C3.95 56.42, 3.95 56.42, 3.95 56.42 M12.97 53.67 C7.88 51.61, 6.04 47.53, 3.16 45.14 M12.97 53.67 C9.52 50.85, 5.74 47, 3.16 45.14 M25.01 53.53 C17.23 47.37, 11.85 38.8, 3.13 34.51 M25.01 53.53 C18.99 47.6, 13.74 43.18, 3.13 34.51 M37.81 54.06 C28.53 43.71, 19.36 35.43, 3.09 23.88 M37.81 54.06 C29.18 46.47, 22.78 40.23, 3.09 23.88 M49.85 53.92 C32.8 39.46, 15.7 24.3, 0.79 11.28 M49.85 53.92 C40.42 44.96, 29.77 35.9, 0.79 11.28 M62.65 54.45 C50.18 43.42, 36.26 30.76, 3.78 3.27 M62.65 54.45 C42.08 36.42, 21.51 17.6, 3.78 3.27 M74.69 54.31 C56.5 36.51, 36.49 19.59, 10.54 -1.45 M74.69 54.31 C57.06 39.39, 38.7 22.08, 10.54 -1.45 M86.73 54.18 C66.9 39.39, 49.24 18.98, 18.8 -4.86 M86.73 54.18 C64.19 35.04, 43.89 16.09, 18.8 -4.86 M99.52 54.7 C83.39 42.24, 68.93 29.88, 31.6 -4.34 M99.52 54.7 C77.8 38, 58.61 18.97, 31.6 -4.34 M111.56 54.57 C89.12 33.48, 67.44 16.39, 43.64 -4.47 M111.56 54.57 C96.43 42.82, 83.92 30.61, 43.64 -4.47 M128.13 58.37 C107.94 40.54, 88.99 22.4, 55.68 -4.61 M128.13 58.37 C103.87 36.43, 78.14 16.03, 55.68 -4.61 M137.91 56.27 C110.94 33.58, 83.7 9.07, 68.48 -4.09 M137.91 56.27 C111.52 32.67, 84.34 9.71, 68.48 -4.09 M142.4 49.58 C124.07 36.14, 108.8 19.76, 80.52 -4.22 M142.4 49.58 C122.12 31.07, 101.16 13.51, 80.52 -4.22 M142.37 38.95 C124.01 23.07, 106.33 8.26, 92.56 -4.35 M142.37 38.95 C123.67 22.59, 103.99 5.55, 92.56 -4.35 M143.09 28.97 C128.76 15.73, 115.1 3.44, 105.35 -3.83 M143.09 28.97 C132.46 18.69, 120.6 11.08, 105.35 -3.83 M143.05 18.34 C137.74 13.32, 133.53 10.06, 117.39 -3.96 M143.05 18.34 C138.11 12.73, 131.96 9.79, 117.39 -3.96" stroke="#ebfbee" stroke-width="1" fill="none"></path><path d="M15 0 C43.26 1.84, 69.02 2.68, 126.73 0 M15 0 C43.18 -1.89, 72.3 -0.36, 126.73 0 M126.73 0 C135.3 0.43, 140.27 4.08, 141.73 15 M126.73 0 C136.11 2.05, 140.64 4.56, 141.73 15 M141.73 15 C141.54 27.9, 142.28 39.3, 141.73 45 M141.73 15 C141.93 20.27, 141.26 27.3, 141.73 45 M141.73 45 C142.35 53.43, 134.91 59.56, 126.73 60 M141.73 45 C140.99 55.24, 137.85 62.11, 126.73 60 M126.73 60 C99.5 59.76, 70.32 61.24, 15 60 M126.73 60 C102.87 60.76, 78.24 59.49, 15 60 M15 60 C6.08 60.89, 1.27 55.8, 0 45 M15 60 C3.68 59.71, 2.25 55.42, 0 45 M0 45 C1.68 34.43, -1.27 26.35, 0 15 M0 45 C0.22 38.82, 0.17 31.53, 0 15 M0 15 C1.8 6.3, 5.26 1.39, 15 0 M0 15 C1.26 6.17, 7.17 0.89, 15 0" stroke="#1e1e1e" stroke-width="2" fill="none"></path></g><g transform="translate(494.1672342038937 394.7944428063149) rotate(0 38.68333435058594 20)"><text x="38.68333435058594" y="14.016" font-family="Virgil, Segoe UI Emoji" font-size="16px" fill="#1e1e1e" text-anchor="middle" style="white-space: pre;" direction="ltr" dominant-baseline="alphabetic">Workflows</text><text x="38.68333435058594" y="34.016" font-family="Virgil, Segoe UI Emoji" font-size="16px" fill="#1e1e1e" text-anchor="middle" style="white-space: pre;" direction="ltr" dominant-baseline="alphabetic">indexation</text></g><g stroke-linecap="round" transform="translate(282.4948786408786 385.91684449034915) rotate(0 80.83604893142729 29.644292087330655)"><path d="M2.09 5.79 C2.09 5.79, 2.09 5.79, 2.09 5.79 M2.09 5.79 C2.09 5.79, 2.09 5.79, 2.09 5.79 M4.84 14.81 C7.97 10.01, 12.53 4.4, 16.65 1.23 M4.84 14.81 C7.8 10.85, 11.79 7.93, 16.65 1.23 M4.32 27.61 C9.47 19.36, 16.06 12.3, 27.28 1.19 M4.32 27.61 C8.89 22.01, 14.42 16.48, 27.28 1.19 M4.45 39.65 C15.29 27.18, 22.67 19.02, 37.26 1.91 M4.45 39.65 C17.71 25.45, 30.15 9.34, 37.26 1.91 M4.59 51.69 C17.86 35.45, 32.33 19.15, 47.89 1.88 M4.59 51.69 C20.45 33.14, 35.47 15.21, 47.89 1.88 M8.66 59.2 C18.83 46.39, 32.03 34.26, 58.52 1.84 M8.66 59.2 C28.02 37.73, 46.03 16.69, 58.52 1.84 M19.29 59.17 C36.8 39.89, 53.63 18.72, 69.15 1.81 M19.29 59.17 C30.51 46.6, 41.62 33.16, 69.15 1.81 M29.92 59.13 C39.14 47.43, 47.93 37.58, 79.78 1.77 M29.92 59.13 C46.08 40.31, 64.05 20.73, 79.78 1.77 M40.55 59.1 C58.18 37.83, 79.72 14.87, 90.41 1.74 M40.55 59.1 C54.72 42.53, 68.52 25.87, 90.41 1.74 M51.18 59.06 C60.63 46.23, 71.72 34, 101.04 1.7 M51.18 59.06 C69.75 36.36, 90.83 12.52, 101.04 1.7 M61.81 59.03 C75.1 43.55, 88.59 28.41, 111.01 2.42 M61.81 59.03 C74.61 45.79, 86.75 31.53, 111.01 2.42 M72.44 58.99 C87.97 40.23, 103.57 24.14, 121.64 2.39 M72.44 58.99 C91.11 37.05, 112.1 13.47, 121.64 2.39 M82.41 59.71 C91.92 45.38, 105.33 35.89, 132.27 2.36 M82.41 59.71 C102.11 37.47, 121.93 16.04, 132.27 2.36 M93.04 59.68 C110 37.91, 131.49 16.49, 142.9 2.32 M93.04 59.68 C111.68 36.51, 130.96 14.31, 142.9 2.32 M103.67 59.64 C122.13 36.71, 143.77 16.36, 154.19 1.53 M103.67 59.64 C116.95 46.44, 128.11 32.07, 154.19 1.53 M114.3 59.61 C132.25 39.42, 149.53 18.1, 160.88 6.03 M114.3 59.61 C129.79 42.58, 142.61 27.27, 160.88 6.03 M124.93 59.58 C140.14 42.36, 155.57 23.35, 164.29 14.29 M124.93 59.58 C137.05 46.53, 148.7 33.43, 164.29 14.29 M135.56 59.54 C147.59 46.82, 157.55 34.96, 164.43 26.33 M135.56 59.54 C145.21 49.77, 154.81 38.85, 164.43 26.33 M146.19 59.51 C150.62 56.31, 154.21 52.3, 163.9 39.13 M146.19 59.51 C150.95 53.37, 158.26 46.29, 163.9 39.13 M3.51 55.41 C3.51 55.41, 3.51 55.41, 3.51 55.41 M3.51 55.41 C3.51 55.41, 3.51 55.41, 3.51 55.41 M19.32 58.56 C13.51 56.83, 9.35 49.68, 0.45 42.16 M19.32 58.56 C15.52 54.1, 11.02 50.82, 0.45 42.16 M31.36 58.42 C20.42 49.67, 12.36 42.91, 0.42 31.53 M31.36 58.42 C22.01 50.46, 14.4 43.2, 0.42 31.53 M43.4 58.29 C32.07 46.61, 20.13 36.52, 0.39 20.9 M43.4 58.29 C31.77 47.34, 20.29 38.42, 0.39 20.9 M56.2 58.81 C42.39 46.91, 30.29 36.13, 1.11 10.92 M56.2 58.81 C36.53 41.27, 18.19 24.52, 1.11 10.92 M68.24 58.68 C43.5 36.46, 18.14 13.67, 4.84 3.57 M68.24 58.68 C48.8 41.88, 30.81 25.97, 4.84 3.57 M80.28 58.55 C56.98 40.41, 34.9 16.53, 13.11 0.16 M80.28 58.55 C56.96 36.55, 32.92 16.97, 13.11 0.16 M93.08 59.07 C74.32 46.41, 58.28 29.35, 24.4 -0.63 M93.08 59.07 C65.38 37.2, 39.38 13.03, 24.4 -0.63 M105.12 58.94 C88.82 43.66, 72.64 30.36, 37.19 -0.11 M105.12 58.94 C91.21 46.63, 75.4 33.27, 37.19 -0.11 M117.16 58.81 C97.99 40.07, 75.59 21.86, 49.23 -0.24 M117.16 58.81 C101.16 45.53, 86.1 30.34, 49.23 -0.24 M129.95 59.33 C107.14 39.53, 83.72 19.2, 61.28 -0.37 M129.95 59.33 C116.07 46.73, 101.04 33.39, 61.28 -0.37 M141.99 59.19 C125.37 41.73, 104.36 27.13, 73.32 -0.51 M141.99 59.19 C119.64 38.02, 94.84 18.27, 73.32 -0.51 M152.53 57.75 C133.24 42.41, 115.35 26.03, 86.11 0.02 M152.53 57.75 C138.19 46.38, 124.96 34.5, 86.11 0.02 M159.28 53.02 C139.95 36.8, 123.2 23.71, 98.15 -0.12 M159.28 53.02 C145.97 41.29, 133.77 30.47, 98.15 -0.12 M161.51 44.36 C146.09 29.37, 133.42 20.22, 110.19 -0.25 M161.51 44.36 C142.32 25.69, 121.06 8.2, 110.19 -0.25 M161.48 33.73 C147.32 22.59, 135.63 13.06, 122.99 0.27 M161.48 33.73 C152.63 25.67, 143.72 18.54, 122.99 0.27 M161.44 23.1 C153.74 18.96, 147.17 10.65, 135.03 0.14 M161.44 23.1 C151.44 13.41, 140.89 5, 135.03 0.14 M161.41 12.47 C156.28 7.82, 153.3 3.62, 147.07 0.01 M161.41 12.47 C157.49 9.51, 152.96 5.35, 147.07 0.01" stroke="#ebfbee" stroke-width="1" fill="none"></path><path d="M14.82 0 C59.25 -2.62, 107.25 -1.7, 146.85 0 M14.82 0 C41.78 -0.61, 69.43 -1.29, 146.85 0 M146.85 0 C156.2 1.78, 160.72 4.56, 161.67 14.82 M146.85 0 C158.54 1.76, 161.18 4.46, 161.67 14.82 M161.67 14.82 C159.77 25.13, 159.87 37.83, 161.67 44.47 M161.67 14.82 C161.88 20.58, 160.66 27.68, 161.67 44.47 M161.67 44.47 C161.03 54.55, 157.71 61.13, 146.85 59.29 M161.67 44.47 C160.49 54.55, 156.87 59.9, 146.85 59.29 M146.85 59.29 C107.62 61.98, 71.86 60.93, 14.82 59.29 M146.85 59.29 C98.95 58.93, 50.6 58.89, 14.82 59.29 M14.82 59.29 C3.79 59.03, 1.95 54.71, 0 44.47 M14.82 59.29 C5.37 61.57, -0.81 56.62, 0 44.47 M0 44.47 C-1.37 38.28, -0.21 30.48, 0 14.82 M0 44.47 C0.8 34.62, 0.03 24.18, 0 14.82 M0 14.82 C1.09 5.95, 6.82 0.78, 14.82 0 M0 14.82 C-1.74 3.16, 5.74 0.29, 14.82 0" stroke="#1e1e1e" stroke-width="2" fill="none"></path></g><g transform="translate(289.49759169584104 395.5611365776799) rotate(0 73.83333587646484 20)"><text x="73.83333587646484" y="14.016" font-family="Virgil, Segoe UI Emoji" font-size="16px" fill="#1e1e1e" text-anchor="middle" style="white-space: pre;" direction="ltr" dominant-baseline="alphabetic">Blocks assignment </text><text x="73.83333587646484" y="34.016" font-family="Virgil, Segoe UI Emoji" font-size="16px" fill="#1e1e1e" text-anchor="middle" style="white-space: pre;" direction="ltr" dominant-baseline="alphabetic">to executors</text></g><g stroke-linecap="round" transform="translate(372.49016433299585 116.59166902011088) rotate(0 161.27352562152691 17.5)"><path d="M8.75 0 C76.33 1.17, 147.44 -0.4, 313.8 0 M8.75 0 C106.7 1.66, 204.69 0.87, 313.8 0 M313.8 0 C321.21 1.53, 322.12 2.5, 322.55 8.75 M313.8 0 C321.4 0.37, 324.36 0.67, 322.55 8.75 M322.55 8.75 C320.99 12.65, 322.68 18.28, 322.55 26.25 M322.55 8.75 C322.11 12.72, 322.81 17.31, 322.55 26.25 M322.55 26.25 C321.52 32.26, 319.75 35.53, 313.8 35 M322.55 26.25 C322.19 31.07, 320.98 33.1, 313.8 35 M313.8 35 C193.95 36.11, 71.29 36.75, 8.75 35 M313.8 35 C208.27 35.79, 104.28 36.02, 8.75 35 M8.75 35 C3.29 36.98, -0.7 34.06, 0 26.25 M8.75 35 C1.75 33.88, 0.54 30.34, 0 26.25 M0 26.25 C0.98 20.55, -0.02 15.21, 0 8.75 M0 26.25 C0.45 20.31, 0.8 13.82, 0 8.75 M0 8.75 C-1.51 1.37, 3.61 0.25, 8.75 0 M0 8.75 C2.23 0.81, 1.74 1.48, 8.75 0" stroke="#2f9e44" stroke-width="2" fill="none"></path></g><g transform="translate(400.7636899545223 121.59166902011088) rotate(0 133 12.5)"><text x="133" y="17.52" font-family="Virgil, Segoe UI Emoji" font-size="20px" fill="#2f9e44" text-anchor="middle" style="white-space: pre;" direction="ltr" dominant-baseline="alphabetic">Ditto Programmable Vaults</text></g><g mask="url(#mask-y85BvzjMgiEKqA66orSkh)" stroke-linecap="round"><g transform="translate(648.3712776790362 164.4165055768915) rotate(0 -36.24698748984156 75.25165296438149)"><path d="M-0.86 0.26 C-2.75 12.86, 1.06 51.11, -10.94 76.33 C-22.93 101.55, -62.46 139.25, -72.82 151.57 M0.9 -0.65 C-0.67 12.04, 3.76 52.51, -8.69 77.58 C-21.13 102.65, -63.01 137.51, -73.75 149.79" stroke="#1e1e1e" stroke-width="2" fill="none"></path></g><g transform="translate(648.3712776790362 164.4165055768915) rotate(0 -36.24698748984156 75.25165296438149)"><path d="M-63.07 127.19 C-66.1 133.27, -71.05 141.82, -73.75 149.79 M-63.07 127.19 C-66.55 136.72, -71.7 144.55, -73.75 149.79" stroke="#1e1e1e" stroke-width="2" fill="none"></path></g><g transform="translate(648.3712776790362 164.4165055768915) rotate(0 -36.24698748984156 75.25165296438149)"><path d="M-51.04 139.34 C-58.2 141.24, -67.21 145.69, -73.75 149.79 M-51.04 139.34 C-59.14 144.13, -68.97 147.22, -73.75 149.79" stroke="#1e1e1e" stroke-width="2" fill="none"></path></g></g><mask id="mask-y85BvzjMgiEKqA66orSkh"><rect x="0" y="0" fill="#fff" width="820.8652526587191" height="414.9198115056545"></rect><rect x="602.0434517703907" y="221.29874525310652" fill="#000" width="72.53333282470703" height="40" opacity="1"></rect></mask><g transform="translate(602.0434517703907 221.29874525310652) rotate(0 9.90048187823595 18.579643509151197)"><text x="36.266666412353516" y="14.016" font-family="Virgil, Segoe UI Emoji" font-size="16px" fill="#1e1e1e" text-anchor="middle" style="white-space: pre;" direction="ltr" dominant-baseline="alphabetic">register </text><text x="36.266666412353516" y="34.016" font-family="Virgil, Segoe UI Emoji" font-size="16px" fill="#1e1e1e" text-anchor="middle" style="white-space: pre;" direction="ltr" dominant-baseline="alphabetic">workflows</text></g><g stroke-linecap="round" transform="translate(873.4842366240991 10) rotate(0 143.20425466776715 40.01306135271102)"><path d="M20.01 0 C77.4 -0.24, 131.56 1.84, 266.4 0 M20.01 0 C113.39 0.55, 206.16 -0.38, 266.4 0 M266.4 0 C278.88 -1.85, 287.08 5.08, 286.41 20.01 M266.4 0 C278.96 0.38, 287.12 4.87, 286.41 20.01 M286.41 20.01 C286.53 29.34, 288.16 35.7, 286.41 60.02 M286.41 20.01 C286.28 31.92, 287.02 43.89, 286.41 60.02 M286.41 60.02 C288.33 73.52, 280.61 81.36, 266.4 80.03 M286.41 60.02 C286.65 71.96, 280.99 81.05, 266.4 80.03 M266.4 80.03 C176.68 80.47, 87.68 79.17, 20.01 80.03 M266.4 80.03 C167.64 81.63, 69.89 81.4, 20.01 80.03 M20.01 80.03 C7.88 79.67, 0.81 74.44, 0 60.02 M20.01 80.03 C7.47 79.96, 2.07 74.85, 0 60.02 M0 60.02 C0.73 49.38, 0.5 33.46, 0 20.01 M0 60.02 C0.83 50.2, -0.65 42.86, 0 20.01 M0 20.01 C1.57 7.75, 6.85 -1.27, 20.01 0 M0 20.01 C-0.4 4.88, 5.4 -1.44, 20.01 0" stroke="#1e1e1e" stroke-width="2" fill="none"></path></g><g transform="translate(965.5218233536334 37.51306135271102) rotate(0 51.16666793823242 12.5)"><text x="51.16666793823242" y="17.52" font-family="Virgil, Segoe UI Emoji" font-size="20px" fill="#1e1e1e" text-anchor="middle" style="white-space: pre;" direction="ltr" dominant-baseline="alphabetic">EigenLayer</text></g></svg>
